<?xml version="1.0" encoding="utf-8"?>
<svg xmlns="http://www.w3.org/2000/svg" fill="none" height="563" viewBox="0 0 1006 755" width="750">
<g clip-path="url(#clip0_1364_8072)">
<rect fill="#103C38" height="755" transform="matrix(-1 0 0 1 1006 0)" width="1006"/>
<path d="M665.342 264.367L644 376L594 586H882L933.145 286.705C934.97 276.028 932.383 265.068 925.978 256.334C918.449 246.066 906.478 240 893.745 240H694.808C680.412 240 668.045 250.226 665.342 264.367Z" fill="#246761"/>
<mask fill="black" height="188" id="path-2-outside-1_1364_8072" maskUnits="userSpaceOnUse" width="135" x="101.336" y="-10.0006">
<rect fill="white" height="188" width="135" x="101.336" y="-10.0006"/>
<path d="M103.234 139.03C103.234 159.33 119.692 175.787 139.992 175.787H197.578C217.879 175.787 234.336 159.33 234.336 139.03H103.234ZM115.487 -8.00058C108.72 -8.00058 103.234 -2.5145 103.234 4.25235V139.029H234.336V4.25235C234.336 -2.5145 228.85 -8.00058 222.083 -8.00058H115.487Z"/>
</mask>
<path d="M103.234 139.03C103.234 159.33 119.692 175.787 139.992 175.787H197.578C217.879 175.787 234.336 159.33 234.336 139.03H103.234ZM115.487 -8.00058C108.72 -8.00058 103.234 -2.5145 103.234 4.25235V139.029H234.336V4.25235C234.336 -2.5145 228.85 -8.00058 222.083 -8.00058H115.487Z" fill="#103C38"/>
<path d="M103.234 139.03L101.883 139.03L101.883 137.678H103.234V139.03ZM234.336 139.03V137.678H235.688L235.688 139.03L234.336 139.03ZM103.234 139.029V140.381H101.883V139.029H103.234ZM234.336 139.029H235.688V140.381H234.336V139.029ZM103.234 139.03L104.586 139.03C104.586 158.584 120.438 174.435 139.992 174.435V175.787V177.138C118.945 177.138 101.883 160.077 101.883 139.03L103.234 139.03ZM139.992 175.787V174.435H197.578V175.787V177.138H139.992V175.787ZM197.578 175.787V174.435C217.132 174.435 232.984 158.584 232.984 139.03L234.336 139.03L235.688 139.03C235.688 160.077 218.625 177.138 197.578 177.138V175.787ZM234.336 139.03V140.382H103.234V139.03V137.678H234.336V139.03ZM115.487 -8.00058V-6.64877C109.467 -6.64877 104.586 -1.76792 104.586 4.25235H103.234H101.883C101.883 -3.26109 107.974 -9.35239 115.487 -9.35239V-8.00058ZM103.234 4.25235H104.586V139.029H103.234H101.883V4.25235H103.234ZM103.234 139.029V137.677H234.336V139.029V140.381H103.234V139.029ZM234.336 139.029H232.984V4.25235H234.336H235.688V139.029H234.336ZM234.336 4.25235H232.984C232.984 -1.76792 228.103 -6.64877 222.083 -6.64877V-8.00058V-9.35239C229.596 -9.35239 235.688 -3.26109 235.688 4.25235H234.336ZM222.083 -8.00058V-6.64877H115.487V-8.00058V-9.35239H222.083V-8.00058Z" fill="#164D48" mask="url(#path-2-outside-1_1364_8072)"/>
<rect fill="#103C38" height="17.0269" rx="6.67557" stroke="#164D48" stroke-linecap="round" stroke-width="1.35181" width="145.678" x="95.3361" y="29.4334"/>
<rect fill="#103C38" height="17.0269" rx="6.67557" stroke="#164D48" stroke-linecap="round" stroke-width="1.35181" width="145.678" x="95.3361" y="111.524"/>
<path d="M277.22 182.462C280.976 182.462 284.022 185.507 284.022 189.263V735.723C284.022 739.48 280.976 742.526 277.22 742.526H59.126C55.3694 742.526 52.3242 739.48 52.3242 735.723V189.263C52.3243 185.507 55.3695 182.462 59.126 182.462H277.22Z" fill="#103C38" stroke="#164D48" stroke-linecap="round" stroke-width="1.35181"/>
<rect fill="#103C38" height="195.913" rx="5.45033" stroke="#164D48" stroke-linecap="round" stroke-width="1.35181" width="159.156" x="90.4376" y="214.445"/>
<path d="M277.22 181.237C280.976 181.237 284.022 184.282 284.022 188.039V219.346H52.3242V188.039C52.3244 184.282 55.3695 181.237 59.126 181.237H277.22Z" fill="#103C38" stroke="#164D48" stroke-linecap="round" stroke-width="1.35181"/>
<rect fill="#103C38" height="168.957" stroke="#164D48" stroke-linecap="round" stroke-width="1.35181" width="130.975" x="105.141" y="219.346"/>
<path d="M89.7617 388.981H249.044" stroke="#164D48" stroke-linecap="round" stroke-width="1.35181"/>
<path d="M89.7617 393.882H249.044" stroke="#164D48" stroke-linecap="round" stroke-width="1.35181"/>
<path d="M139.279 284.285H129.684C128.912 284.285 128.234 284.783 127.997 285.506L127.956 285.653L124.208 301.582C123.946 302.696 124.791 303.762 125.936 303.762H143.027C144.1 303.762 144.91 302.825 144.791 301.79L144.755 301.582L141.007 285.653C140.83 284.902 140.19 284.357 139.433 284.292L139.279 284.285Z" fill="#103C38" stroke="#164D48" stroke-linecap="round" stroke-width="1.35181"/>
<path d="M130.192 259.78H138.77C139.749 259.78 140.544 260.574 140.544 261.554V279.321C140.544 282.669 137.83 285.383 134.481 285.383C131.133 285.383 128.418 282.669 128.418 279.321V261.554L128.428 261.374C128.518 260.479 129.274 259.78 130.192 259.78Z" fill="#103C38" stroke="#164D48" stroke-linecap="round" stroke-width="1.35181"/>
<path d="M138.092 284.285V290.961C138.092 291.941 137.297 292.735 136.317 292.735H132.642C131.662 292.735 130.867 291.941 130.867 290.961V284.285H138.092Z" fill="#103C38" stroke="#164D48" stroke-linecap="round" stroke-width="1.35181"/>
<path d="M128.355 264.619H140.608" stroke="#164D48" stroke-linecap="round" stroke-width="1.35181"/>
<path d="M211.568 284.285H201.973C201.201 284.285 200.523 284.783 200.286 285.506L200.245 285.653L196.497 301.582C196.235 302.696 197.08 303.762 198.225 303.762H215.316C216.389 303.762 217.199 302.825 217.08 301.79L217.044 301.582L213.296 285.653C213.119 284.902 212.479 284.357 211.722 284.292L211.568 284.285Z" fill="#103C38" stroke="#164D48" stroke-linecap="round" stroke-width="1.35181"/>
<path d="M202.481 259.78H211.059C212.039 259.78 212.833 260.574 212.833 261.554V279.321C212.833 282.669 210.119 285.383 206.771 285.383C203.422 285.383 200.707 282.669 200.707 279.321V261.554L200.717 261.374C200.807 260.479 201.563 259.78 202.481 259.78Z" fill="#103C38" stroke="#164D48" stroke-linecap="round" stroke-width="1.35181"/>
<path d="M210.381 284.285V290.961C210.381 291.941 209.586 292.735 208.606 292.735H204.931C203.951 292.735 203.156 291.941 203.156 290.961V284.285H210.381Z" fill="#103C38" stroke="#164D48" stroke-linecap="round" stroke-width="1.35181"/>
<path d="M200.645 264.619H212.897" stroke="#164D48" stroke-linecap="round" stroke-width="1.35181"/>
<path d="M53 444.116H283.346" stroke="#164D48" stroke-linecap="round" stroke-width="1.35181"/>
<path d="M53 449.017H283.346" stroke="#164D48" stroke-linecap="round" stroke-width="1.35181"/>
<rect fill="#103C38" height="13.3511" rx="5.45033" stroke="#164D48" stroke-linecap="round" stroke-width="1.35181" width="128.524" x="102.688" y="169.112"/>
<path d="M79.957 449.017V740.626" stroke="#164D48" stroke-linecap="round" stroke-width="1.35181"/>
<path d="M228.064 352.223C229.758 352.223 231.131 353.596 231.131 355.289V356.671H234.382C238.347 356.671 241.562 359.886 241.562 363.851C241.561 366.188 240.423 368.379 238.512 369.723L229.967 375.732C227.207 383.443 219.837 388.96 211.178 388.96H202.828C191.809 388.96 182.875 380.027 182.875 369.007V355.289C182.875 353.596 184.249 352.223 185.942 352.223H228.064ZM231.131 369.007C231.131 369.427 231.115 369.843 231.09 370.256L236.307 366.588C237.198 365.962 237.728 364.94 237.729 363.851C237.729 362.003 236.23 360.504 234.382 360.504H231.131V369.007Z" fill="#103C38"/>
<path d="M228.064 352.223L228.065 351.547H228.064V352.223ZM231.131 355.289H231.807V355.289L231.131 355.289ZM231.131 356.671H230.455V357.347H231.131V356.671ZM234.382 356.671L234.382 355.995H234.382V356.671ZM241.562 363.851L242.237 363.851V363.851H241.562ZM238.512 369.723L238.901 370.276L238.901 370.276L238.512 369.723ZM229.967 375.732L229.578 375.179L229.403 375.302L229.33 375.504L229.967 375.732ZM211.178 388.96V389.636H211.178L211.178 388.96ZM202.828 388.96L202.828 389.636H202.828V388.96ZM182.875 369.007H182.199V369.007L182.875 369.007ZM182.875 355.289L182.199 355.289V355.289H182.875ZM231.131 369.007L231.807 369.007V369.007H231.131ZM231.09 370.256L230.415 370.215L230.329 371.618L231.479 370.809L231.09 370.256ZM236.307 366.588L236.695 367.141L236.695 367.141L236.307 366.588ZM237.729 363.851L238.404 363.851V363.851H237.729ZM234.382 360.504L234.382 359.828H234.382V360.504ZM231.131 360.504V359.828H230.455V360.504H231.131ZM228.064 352.223L228.064 352.899C229.385 352.899 230.455 353.969 230.455 355.289L231.131 355.289L231.807 355.289C231.807 353.223 230.131 351.547 228.065 351.547L228.064 352.223ZM231.131 355.289H230.455V356.671H231.131H231.807V355.289H231.131ZM231.131 356.671V357.347H234.382V356.671V355.995H231.131V356.671ZM234.382 356.671L234.382 357.347C237.974 357.347 240.886 360.259 240.886 363.851H241.562H242.237C242.237 359.512 238.72 355.995 234.382 355.995L234.382 356.671ZM241.562 363.851L240.886 363.851C240.885 365.968 239.855 367.952 238.123 369.17L238.512 369.723L238.901 370.276C240.992 368.805 242.237 366.408 242.237 363.851L241.562 363.851ZM238.512 369.723L238.123 369.17L229.578 375.179L229.967 375.732L230.356 376.285L238.901 370.276L238.512 369.723ZM229.967 375.732L229.33 375.504C226.663 382.955 219.543 388.284 211.178 388.284L211.178 388.96L211.178 389.636C220.132 389.636 227.75 383.93 230.603 375.96L229.967 375.732ZM211.178 388.96V388.284H202.828V388.96V389.636H211.178V388.96ZM202.828 388.96L202.828 388.284C192.182 388.284 183.551 379.653 183.551 369.007L182.875 369.007L182.199 369.007C182.199 380.4 191.435 389.636 202.828 389.636L202.828 388.96ZM182.875 369.007H183.551V355.289H182.875H182.199V369.007H182.875ZM182.875 355.289L183.551 355.289C183.551 353.969 184.622 352.899 185.942 352.899V352.223V351.547C183.876 351.547 182.199 353.222 182.199 355.289L182.875 355.289ZM185.942 352.223V352.899H228.064V352.223V351.547H185.942V352.223ZM231.131 369.007L230.455 369.007C230.455 369.41 230.44 369.812 230.415 370.215L231.09 370.256L231.764 370.298C231.791 369.874 231.807 369.443 231.807 369.007L231.131 369.007ZM231.09 370.256L231.479 370.809L236.695 367.141L236.307 366.588L235.918 366.035L230.701 369.703L231.09 370.256ZM236.307 366.588L236.695 367.141C237.766 366.388 238.404 365.16 238.404 363.851L237.729 363.851L237.053 363.851C237.052 364.72 236.629 365.535 235.918 366.035L236.307 366.588ZM237.729 363.851H238.404C238.404 361.63 236.603 359.828 234.382 359.828L234.382 360.504L234.382 361.18C235.857 361.18 237.053 362.376 237.053 363.851H237.729ZM234.382 360.504V359.828H231.131V360.504V361.18H234.382V360.504ZM231.131 360.504H230.455V369.007H231.131H231.807V360.504H231.131Z" fill="#164D48"/>
<path d="M491.346 385.676L500.5 381.5L526.5 418.5L498 504L465.937 552.58C465.313 553.525 464.771 554.521 464.316 555.557L458.907 567.879C457.141 571.902 453.163 574.5 448.769 574.5C446.635 574.5 444.547 575.117 442.755 576.276L440.046 578.029C438.032 579.332 435.799 580.263 433.455 580.775L421 583.5H404.5L393 550.5L404 502L413 493L421 497L462.528 413.537C468.656 401.221 478.83 391.385 491.346 385.676Z" fill="#7BCF5E"/>
<path d="M683.785 355.866L668.5 353C654.9 355.4 644.833 388 637.5 402.5V445L708 503.5C705.85 509.336 707.132 515.884 711.325 520.478L762 576L772.255 577.338C780.615 578.428 789.116 577.383 796.963 574.3C807.354 570.218 816.076 562.771 821.736 553.149L823 551C826.398 548.168 827.077 543.212 824.566 539.57L821.513 535.144C819.952 532.88 819.681 529.968 820.798 527.455C822.125 524.47 821.476 520.976 819.166 518.666L818.633 518.133C816.947 516.447 816 514.16 816 511.776V509.955C816 505.876 814.141 502.02 810.95 499.48L791.5 484L722.526 381.37C713.553 368.019 699.595 358.83 683.785 355.866Z" fill="#7BCF5E"/>
<path d="M472.236 324.5L472.236 312.219C472.236 304.918 469.982 297.795 465.784 291.822L464.503 290L461.322 285.436C455.991 277.788 453.886 268.348 455.462 259.16L456.696 251.966C457.035 249.992 457.543 248.052 458.214 246.165L460.673 239.258C463.21 232.131 466.856 225.448 471.477 219.458C484.196 202.969 503.44 192.806 524.229 191.597L534.503 191L543.465 191.711C557.668 192.839 570.535 200.519 578.268 212.485C580.702 216.251 584.189 219.218 588.295 221.019L596.565 224.644C603.001 227.466 608.299 232.372 611.606 238.572L618.598 251.682C621.115 256.403 625.246 260.061 630.237 261.989C638.832 265.31 644.5 273.576 644.5 282.79L644.5 286.377C644.5 289.06 644.93 291.726 645.776 294.272C648.415 302.224 654.854 308.331 662.934 310.546L663.927 310.819C674.293 313.661 681.984 322.384 683.504 333.025L684.737 341.647C686.119 351.319 681.776 360.917 673.598 366.263C665.841 371.335 655.922 371.73 647.785 367.292L647.459 367.114C645.494 366.043 643.399 365.231 641.225 364.701L604.068 355.635C596.876 353.88 589.314 354.42 582.443 357.18L528.12 379L518.373 382.067C497.093 388.764 474.988 374.384 472.486 352.216L472.236 350L472.236 324.5Z" fill="#FF7747"/>
<path d="M497 383L537.5 365L630.5 348L690 357V517L703 583.5L517.5 587.5L498.5 528C482.5 520.5 479.5 506 479.5 496C479.5 488 492.167 458.667 498.5 445L497 383Z" fill="#7BCF5E"/>
<rect fill="#246761" height="188" width="1063" x="-40" y="580"/>
<path d="M595.916 326.795L575 288L571.5 298L542 348L548.5 359L538.001 365C530.001 385 523.201 424.4 560.001 422C596.801 419.6 622.667 371.667 631.001 348L627.145 347.614C613.923 346.292 602.221 338.491 595.916 326.795Z" fill="#FFBB97"/>
<path d="M488.844 221.054C483.586 228.829 478.159 230.229 475.468 244.094C475.468 244.094 472.182 269.394 483.363 286.761C485.627 290.279 487.148 294.296 487.642 298.45C490.475 322.261 512.711 357.255 540.98 352.293C571.972 346.852 574 291.923 574 291.923C577.377 294.01 590.958 282.5 591 266.5C591.059 244.094 577.805 237.392 568.261 256.055C568.261 256.055 562.808 220.142 554.164 213.976C538.764 202.951 502.945 200.211 488.844 221.054Z" fill="#FFBB97"/>
<path d="M517.834 317.776C517.834 317.776 520.377 314.608 524.021 318.155C524.021 318.155 525.721 313.389 529.482 312.113C533.243 310.838 540.53 313.573 540.53 313.573C540.996 316.921 539.883 325.647 536.051 329.812C528.978 337.498 522.5 332 522.5 332C518.965 329.873 513.597 324.656 517.834 317.776Z" fill="#D19174" opacity="0.69"/>
<path d="M543.5 311.5C533.5 325 514.5 324.5 514.5 324.5" stroke="#D19174" stroke-linecap="round" stroke-width="2"/>
<path d="M506.435 274.487C509.211 277.749 511.502 284 511.502 284C512.113 289.657 510.795 295.717 509.417 300.172C508.48 303.199 510.859 306.518 514.017 306.26L522.093 305.599" stroke="#D19174" stroke-linecap="round" stroke-width="2"/>
<path d="M500.455 273.697C489.257 272.218 483.301 282.187 483.301 282.187" stroke="#D19174" stroke-linecap="round" stroke-width="2"/>
<path d="M540.239 264.309C524.461 258.245 517.306 267.247 517.306 267.247" stroke="#D19174" stroke-linecap="round" stroke-width="2"/>
<path d="M500.782 290.305C500.187 287.528 498.219 285.597 496.418 285.975C494.587 286.353 493.61 288.925 494.198 291.684C494.793 294.461 496.77 296.389 498.58 296.007C500.393 295.635 501.371 293.063 500.782 290.305Z" fill="#391D0F"/>
<path d="M534.321 279.596C533.726 276.819 531.758 274.888 529.958 275.266C528.126 275.644 527.149 278.216 527.737 280.975C528.332 283.752 530.309 285.68 532.119 285.298C533.932 284.926 534.91 282.354 534.321 279.596Z" fill="#391D0F"/>
<path d="M539.311 254.174L534.575 249.665C529.393 244.731 521.734 243.437 515.219 246.395C510.851 248.378 505.862 248.487 501.412 246.696L494.712 244C490.798 242.425 486.372 242.768 482.747 244.928C481.98 245.385 481.145 245.728 480.379 246.188C475.417 249.173 475.201 257.975 474.304 257.687L471.206 246.005L479.126 221.191L508.38 200.522L564.685 205.972L569.544 253.985C565.847 259.778 558.755 262.412 552.173 260.438L547.88 259.15C544.672 258.188 541.736 256.483 539.311 254.174Z" fill="#FF7747"/>
<path d="M541.693 352.723C549.846 351.823 566.39 340.753 570.546 310.799" stroke="#D19174" stroke-linecap="round" stroke-width="2"/>
<path d="M511.363 580.144L510.526 578.47C510.09 577.6 510.215 576.554 510.843 575.811C511.34 575.223 512.087 574.905 512.855 574.954L524.886 575.718C525.131 575.734 525.376 575.732 525.621 575.711L532.594 575.127C535.397 574.892 537.842 577.015 538.003 579.824L538.5 588.5L532.817 588.5C530.295 588.5 527.796 588.023 525.451 587.094L513.993 582.555C512.85 582.102 511.914 581.244 511.363 580.144Z" fill="#FFBB97"/>
<path d="M603 540.5L713.617 518.315C725.517 516.623 791.472 519.319 796.51 549.503C801.548 579.688 766.177 577.757 745.501 582.5C724.825 587.243 625.5 580 621.5 580L584.501 580L603 540.5Z" fill="#FFBB97"/>
<path d="M598.38 540.881L646 532.5L662 580L587.567 580C584.863 580 582.165 580.274 579.516 580.819L547 587.5L533.83 540.402L525.193 539.119L511.176 534.391C510.216 534.067 509.377 533.459 508.77 532.648L503.979 526.242C502.932 524.842 504.058 522.868 505.795 523.055L532.619 525.953L543.446 526.767C552.924 527.48 562.096 530.434 570.209 535.386L570.605 535.628C578.915 540.701 588.791 542.569 598.38 540.881Z" fill="#FFBB97"/>
<path d="M511.382 535.108L504.707 541.411C504.585 541.526 504.414 541.549 504.285 541.441C498.562 536.628 473.657 506.5 471.577 503.265C469.471 499.989 473.926 498.086 474.757 498.618C478.871 500.484 500.753 523.252 511.403 534.639C511.53 534.774 511.517 534.981 511.382 535.108Z" fill="white"/>
<path d="M506.832 542.694L505.026 540.781L510.766 535.361L512.573 537.274L513.993 540.869L528.283 556.003L524.456 559.616L510.166 544.482L506.832 542.694Z" fill="white"/>
<path d="M506.998 536.945C505.845 538.033 504.028 537.981 502.939 536.828L497.026 530.566C495.938 529.413 495.99 527.596 497.143 526.508C498.295 525.419 500.112 525.471 501.201 526.624L507.114 532.886C508.203 534.039 508.15 535.856 506.998 536.945Z" fill="#CCCCCC"/>
<rect fill="#E6E6E6" height="4.78488" rx="0.337142" transform="rotate(-133.357 503.289 536.5)" width="8.61278" x="503.289" y="536.5"/>
<path d="M511.451 534.529L504.195 541.337C511.18 548.126 524.82 561.588 526.298 562.665C527.552 563.578 529.213 563.654 530.686 562.602C533.04 560.923 532.079 558.542 531.159 557.292C530.227 556.025 517.895 541.875 511.451 534.529Z" fill="#1C8D20"/>
<path d="M529.022 561.346C529.924 560.419 530.645 559.677 528.97 557.689M525.133 557.927C524.778 558.663 524.974 559.575 526.823 561.011" stroke="#1C8D20" stroke-linecap="round" stroke-width="2"/>
<path d="M514.687 579.856L519.474 581.077C523.089 581.999 526.404 578.778 525.588 575.137L524.798 571.619C524.408 569.879 523.121 568.479 521.42 567.944L513.257 565.376C512.973 565.287 512.698 565.173 512.435 565.034L503.76 560.484C502.314 559.725 500.534 560.072 499.48 561.32C498.627 562.328 498.418 563.731 498.938 564.944L501.788 571.586C502.22 572.592 502.969 573.428 503.921 573.966L513.461 579.363C513.846 579.581 514.259 579.747 514.687 579.856Z" fill="#FFBB97"/>
<path d="M497.867 551.928L511.333 553.326L521.465 554.484L527.037 573.084L517.571 573.877L495.113 560.017C493.93 559.287 493.163 558.039 493.047 556.653C492.818 553.916 495.134 551.645 497.867 551.928Z" fill="#FFBB97"/>
<path d="M503.5 540.5L528.639 538.328L517.229 557.849L492.37 551.098C490.341 550.547 488.873 548.785 488.698 546.69L488.368 542.752C488.234 541.158 488.872 539.596 490.082 538.551L493.302 535.77L496.5 533L503.5 540.5Z" fill="#FFBB97"/>
<path d="M495.672 540.087L502 540.5" stroke="#D19174" stroke-linecap="round" stroke-width="2"/>
<path d="M545.26 587.968L551.03 586.611C551.342 586.537 551.643 586.423 551.925 586.271C553.48 585.433 554.21 583.6 553.657 581.921L540.771 542.814C540.182 541.027 538.639 539.722 536.779 539.437L529.321 538.295C527.911 538.079 526.476 538.476 525.377 539.385L518.402 545.158C517.099 546.237 516.429 547.902 516.623 549.582L519.735 576.562C519.892 577.922 520.6 579.159 521.693 579.983L531.664 587.494C532.531 588.147 533.587 588.5 534.673 588.5L540.679 588.5C542.221 588.5 543.758 588.322 545.26 587.968Z" fill="#FFBB97"/>
<path d="M497.258 553L510.961 554.862" stroke="#D19174" stroke-linecap="round" stroke-width="2"/>
<path d="M499.625 563.338C503.488 565.523 512.317 569.901 516.735 569.932" stroke="#D19174" stroke-linecap="round" stroke-width="2"/>
<path d="M511.383 577.907C513.487 579.069 518.493 581.325 521.682 581.058" stroke="#D19174" stroke-linecap="round" stroke-width="2"/>
<path d="M522.163 538.871C523.63 538.414 526.946 537.266 528.473 536.335" stroke="#D19174" stroke-linecap="round" stroke-width="2"/>
<path d="M521.505 554.982C523.858 555.119 528.93 554.962 530.39 553.234" stroke="#D19174" stroke-linecap="round" stroke-width="2"/>
<path d="M521.47 566.525C523.823 566.663 528.894 566.506 530.355 564.778" stroke="#D19174" stroke-linecap="round" stroke-width="2"/>
<path d="M523.552 579.397C525.905 579.534 530.976 579.377 532.437 577.649" stroke="#D19174" stroke-linecap="round" stroke-width="2"/>
<path d="M515.188 539.455C516.696 539.496 520.303 539.428 522.661 538.829" stroke="#D19174" stroke-linecap="round" stroke-width="2"/>
<path d="M422.5 501.5C419.3 492.7 391.167 409 381.5 380.5L359 350.5L354.6 354.196C349.533 358.453 346.894 364.938 347.597 371.519C353.648 428.114 366.999 534.246 368.5 541C369.697 546.387 374.7 555.281 378.82 561.862C381.19 565.65 384.233 568.959 387.651 571.838L392.704 576.092C398.385 580.876 405.573 583.5 413 583.5C430 575 433.342 570.905 435.5 559.5C439.757 537 426.5 512.5 422.5 501.5Z" fill="#FFBB97"/>
<path d="M491.629 322H418.254C417.768 322 417.299 322.177 416.934 322.498L402.079 335.552C401.434 336.119 401.223 337.033 401.554 337.825L416.987 374.771C417.298 375.515 418.025 376 418.832 376H501.959C502.611 376 503.223 375.682 503.597 375.147L509.389 366.873C509.771 366.327 509.856 365.627 509.616 365.006L493.494 323.279C493.196 322.508 492.455 322 491.629 322Z" fill="#246761"/>
<path d="M483.5 332L501.5 375" stroke="#164D48" stroke-linecap="round" stroke-width="2"/>
<path d="M409.5 331L483.5 332L492 323" stroke="#164D48" stroke-linecap="round" stroke-width="2"/>
<path d="M484.5 332.5L497 335" stroke="#164D48" stroke-linecap="round" stroke-width="2"/>
<path d="M502 375L506.5 360" stroke="#164D48" stroke-linecap="round" stroke-width="2"/>
<path d="M484.441 366.979L420.132 355.874C418.322 355.562 417 353.992 417 352.155C417 349.928 418.919 348.185 421.136 348.399L486.096 354.667C489.78 355.023 492.339 358.5 491.583 362.124C490.899 365.402 487.741 367.548 484.441 366.979Z" stroke="#164D48" stroke-linecap="round" stroke-width="2"/>
<path d="M464 363L466 353" stroke="#164D48" stroke-linecap="round" stroke-width="2"/>
<path d="M456.505 359.701L449.278 358.684C448.026 358.508 447.16 357.34 447.356 356.091C447.541 354.914 448.606 354.082 449.793 354.187L457.063 354.831C458.59 354.966 459.62 356.454 459.208 357.931C458.878 359.115 457.722 359.872 456.505 359.701Z" stroke="#164D48" stroke-linecap="round" stroke-width="2"/>
<path d="M390.26 325.6L353 355.5V360.5L373 384.5C393.356 377.053 398.1 372.07 401.43 368.574L401.5 368.5L412.5 333H427.5L444.587 339.602C447.643 340.783 451.092 340.306 453.714 338.34C455.432 337.051 455.162 334.397 453.219 333.481L431.899 323.424C431.305 323.144 430.663 322.984 430.007 322.952L402.513 321.622C400.846 321.541 399.175 321.69 397.548 322.066C394.884 322.681 392.392 323.889 390.26 325.6Z" fill="#FFBB97"/>
<path d="M428.312 335.848L410 333.5L407 344L423.381 346.891C423.792 346.963 424.192 347.087 424.573 347.259L439.892 354.189C443.103 355.642 446.814 355.479 449.887 353.751C451.319 352.945 451.406 350.915 450.047 349.99L430.49 336.674C429.839 336.231 429.093 335.948 428.312 335.848Z" fill="#FFBB97"/>
<path d="M424.571 345.162L411.837 343H407.429L404 356.838L416.531 358.887C416.991 358.962 417.459 358.972 417.922 358.918L421.879 358.452C423.559 358.254 425.024 357.221 425.775 355.706L426.822 353.593C427.559 352.106 427.51 350.352 426.693 348.909L424.571 345.162Z" fill="#FFBB97"/>
<path d="M413.319 358.188L401.702 356H397.681L395 367.812L405.912 369.791C406.67 369.929 407.449 369.889 408.188 369.676L411.848 368.622C413.585 368.122 414.916 366.724 415.331 364.965L415.495 364.267C415.817 362.902 415.551 361.465 414.762 360.306L413.319 358.188Z" fill="#FFBB97"/>
<path d="M402.5 355.5C405.333 355.333 411.7 355.8 414.5 359" stroke="#D19174" stroke-linecap="round" stroke-width="2"/>
<path d="M408.5 343.5C413 343.667 422.9 344.9 426.5 348.5" stroke="#D19174" stroke-linecap="round" stroke-width="2"/>
<path d="M399 365L407.5 366.5" stroke="#D19174" stroke-linecap="round" stroke-width="2"/>
<path d="M401.502 366C400.835 366.5 399.702 367.7 400.502 368.5" stroke="#D19174" stroke-linecap="round" stroke-width="2"/>
<path d="M392.999 356C392.499 357.167 391.799 359.8 392.999 361" stroke="#D19174" stroke-linecap="round" stroke-width="2"/>
<path d="M395.663 344C395.163 345.167 394.463 347.8 395.663 349" stroke="#D19174" stroke-linecap="round" stroke-width="2"/>
<path d="M400.663 334C400.163 335.167 399.463 337.8 400.663 339" stroke="#D19174" stroke-linecap="round" stroke-width="2"/>
<path d="M708.5 503.5C716 497.5 740.3 485.6 777.5 486" stroke="#4CBA37" stroke-linecap="round" stroke-width="2"/>
<path d="M714 505.5C731.5 503.333 772.4 504.3 796 525.5" stroke="#4CBA37" stroke-linecap="round" stroke-width="2"/>
<path d="M639.5 448L690 487.5" stroke="#4CBA37" stroke-linecap="round" stroke-width="2"/>
<path d="M546.5 513.5C552.333 515.167 566.3 520.3 575.5 527.5" stroke="#4CBA37" stroke-linecap="round" stroke-width="2"/>
<path d="M533 513L543.5 522" stroke="#4CBA37" stroke-linecap="round" stroke-width="2"/>
<path d="M499 428C496.167 442.333 492.5 456 485.501 471C480.526 481.661 476.168 497.5 479.001 500" stroke="#4CBA37" stroke-linecap="round" stroke-width="2"/>
<path d="M571.5 268C572.167 264.167 574.6 255.1 579 249.5" stroke="#D19174" stroke-linecap="round" stroke-width="2"/>
<path d="M548.5 360.5L553.5 370.5" stroke="#D19174" stroke-linecap="round" stroke-width="2"/>
<path d="M556.5 380.5L558.215 382.1C561.605 385.265 566.726 385.683 570.585 383.11L573.486 381.176C574.16 380.727 574.885 380.361 575.646 380.087L612 367" stroke="#D19174" stroke-linecap="round" stroke-width="2"/>
<path d="M373.5 383L384 380" stroke="#D19174" stroke-linecap="round" stroke-width="2"/>
<path d="M434.5 518.5C439.167 528.333 447.9 551.9 445.5 567.5" stroke="#4CBA37" stroke-linecap="round" stroke-width="2"/>
<path d="M444.5 532.5C448.5 537.5 456.9 549.2 458.5 556" stroke="#4CBA37" stroke-linecap="round" stroke-width="2"/>
<path d="M163.168 574.929L131.585 450.732C130.781 447.572 133.169 444.5 136.431 444.5H328.078C330.381 444.5 332.386 446.072 332.934 448.309L365 579H413.772C415.886 579 416.944 581.556 415.45 583.05C411 587.5 404.965 590 398.672 590H182.551C173.403 590 165.422 583.794 163.168 574.929Z" fill="white"/>
<circle cx="242.5" cy="517.5" fill="#246761" r="11.5"/>
<path d="M842 574L871.208 420.171C871.716 417.496 873.248 415.126 875.478 413.566V413.566C879.33 410.869 880.904 405.93 879.322 401.502L878.323 398.705C877.457 396.28 877.26 393.666 877.753 391.139L901 272" stroke="#164D48" stroke-linecap="round" stroke-width="2"/>
<path d="M792 580H886.5" stroke="#164D48" stroke-linecap="round" stroke-width="2"/>
<rect fill="#103C38" height="100.785" stroke="#164D48" stroke-linecap="round" stroke-width="2" width="153.495" x="467" y="30"/>
<rect fill="#103C38" height="87.6075" stroke="#164D48" stroke-linecap="round" stroke-width="2" width="140.318" x="473.59" y="36.5888"/>
<path d="M613.59 36.9065L620.838 30.3177" stroke="#164D48" stroke-linecap="round" stroke-width="2"/>
<path d="M473.905 37.5654L467.316 30.3177" stroke="#164D48" stroke-linecap="round" stroke-width="2"/>
<path d="M467.316 131.126L473.246 125.196" stroke="#164D48" stroke-linecap="round" stroke-width="2"/>
<path d="M614.25 125.196L620.839 130.467" stroke="#164D48" stroke-linecap="round" stroke-width="2"/>
<circle cx="584.601" cy="104.112" fill="#103C38" r="5.58879" stroke="#164D48" stroke-linecap="round" stroke-width="2"/>
<path d="M579.328 108.065V121.243L584.599 115.972L589.87 121.243V108.065" stroke="#164D48" stroke-linecap="round" stroke-width="2"/>
<path d="M508.828 52.0608H576.693" stroke="#164D48" stroke-linecap="round" stroke-width="2"/>
<path d="M492.355 64.5794H597.776" stroke="#164D48" stroke-linecap="round" stroke-width="2"/>
<path d="M492.355 72.486H597.776" stroke="#164D48" stroke-linecap="round" stroke-width="2"/>
<path d="M492.355 80.3925H597.776" stroke="#164D48" stroke-linecap="round" stroke-width="2"/>
<path d="M492.355 90.9346H597.776" stroke="#164D48" stroke-linecap="round" stroke-width="2"/>
<rect fill="#103C38" height="113.963" stroke="#164D48" stroke-linecap="round" stroke-width="2" width="92.8785" x="702" y="32"/>
<rect fill="#103C38" height="98.1495" stroke="#164D48" stroke-linecap="round" stroke-width="2" width="75.7477" x="711.227" y="39.9066"/>
<path d="M786.656 40.2243L794.563 32.3177" stroke="#164D48" stroke-linecap="round" stroke-width="2"/>
<path d="M711.543 39.5654L701.66 32.3177" stroke="#164D48" stroke-linecap="round" stroke-width="2"/>
<path d="M702.316 145.645L710.223 139.056" stroke="#164D48" stroke-linecap="round" stroke-width="2"/>
<path d="M787.312 138.397L794.56 146.304" stroke="#164D48" stroke-linecap="round" stroke-width="2"/>
<circle cx="727.354" cy="115.336" fill="#103C38" r="5.58879" stroke="#164D48" stroke-linecap="round" stroke-width="2"/>
<path d="M722.086 119.29V132.467L727.357 127.196L732.628 132.467V119.29" stroke="#164D48" stroke-linecap="round" stroke-width="2"/>
<path d="M729.992 53.4019H766.889" stroke="#164D48" stroke-linecap="round" stroke-width="2"/>
<path d="M720.766 66.5795H777.429" stroke="#164D48" stroke-linecap="round" stroke-width="2"/>
<path d="M720.766 74.486H777.429" stroke="#164D48" stroke-linecap="round" stroke-width="2"/>
<path d="M720.766 82.3925H777.429" stroke="#164D48" stroke-linecap="round" stroke-width="2"/>
<path d="M720.766 90.2991H777.429" stroke="#164D48" stroke-linecap="round" stroke-width="2"/>
<path d="M720.766 98.2056H777.429" stroke="#164D48" stroke-linecap="round" stroke-width="2"/>
<circle cx="576" cy="287" fill="white" r="4"/>
<path d="M33 757V649C33 647.895 33.8954 647 35 647H859" stroke="#164D48" stroke-linecap="round" stroke-width="2"/>
<path d="M35 615H777" stroke="#164D48" stroke-linecap="round" stroke-width="2"/>
</g>
<defs>
<clipPath id="clip0_1364_8072">
<rect fill="white" height="755" transform="matrix(-1 0 0 1 1006 0)" width="1006"/>
</clipPath>
</defs>
</svg>