<?xml version="1.0" encoding="utf-8"?>
<svg xmlns="http://www.w3.org/2000/svg" fill="none" height="563" viewBox="0 0 1006 755" width="750">
<g clip-path="url(#clip0_1234_1546)">
<rect fill="#CFB7FF" height="755" transform="matrix(-1 0 0 1 1006 0)" width="1006"/>
<rect fill="#CFB7FF" height="264.856" stroke="#AF87FF" stroke-linecap="round" stroke-width="1.5" width="433.228" x="-137.812" y="-102"/>
<rect fill="#CFB7FF" height="264.856" rx="6.02102" stroke="#AF87FF" stroke-linecap="round" stroke-width="1.5" width="433.228" x="692.469" y="-102"/>
<path d="M-152 156.234H295.417V165.693H-152V156.234Z" fill="#CFB7FF" stroke="#AF87FF" stroke-linecap="round" stroke-width="1.5"/>
<path d="M692.85 160.964C692.85 158.352 694.967 156.234 697.579 156.234H1120.97C1123.58 156.234 1125.7 158.352 1125.7 160.964C1125.7 163.576 1123.58 165.693 1120.97 165.693H697.579C694.967 165.693 692.85 163.576 692.85 160.964Z" fill="#CFB7FF" stroke="#AF87FF" stroke-linecap="round" stroke-width="1.5"/>
<rect fill="#CFB7FF" height="26.4856" rx="6.02102" stroke="#AF87FF" stroke-linecap="round" stroke-width="1.5" width="1115.23" x="-192.893" y="387.037"/>
<rect fill="#CFB7FF" height="5.67548" rx="2.83774" stroke="#AF87FF" stroke-linecap="round" stroke-width="1.5" width="157.967" x="764.553" y="381.361"/>
<rect fill="#CFB7FF" height="7.56731" rx="3.78365" stroke="#AF87FF" stroke-linecap="round" stroke-width="1.5" transform="rotate(-90 843.064 381.361)" width="95.5372" x="843.064" y="381.361"/>
<rect fill="#CFB7FF" height="7.56731" rx="3.78365" stroke="#AF87FF" stroke-linecap="round" stroke-width="1.5" transform="rotate(-90 843.064 317.985)" width="32.161" x="843.064" y="317.985"/>
<rect fill="#CFB7FF" height="17.0264" rx="6.02102" stroke="#AF87FF" stroke-linecap="round" stroke-width="1.5" transform="rotate(-90 838.334 381.361)" width="12.2969" x="838.334" y="381.361"/>
<path clip-rule="evenodd" d="M826.982 361.608C826.982 363.636 828.626 365.28 830.654 365.28C831.12 365.28 831.59 365.267 832.055 365.279C832.099 365.28 832.142 365.28 832.185 365.28C835.058 365.28 837.387 362.951 837.387 360.078V359.233C837.387 357.672 836.687 356.194 835.479 355.206C833.908 353.921 831.97 352.688 831.423 350.734L829.094 342.418C828.964 341.954 828.541 341.633 828.058 341.633C827.464 341.633 826.982 342.114 826.982 342.708L826.982 359.233L826.982 360.078L826.982 361.608Z" fill="#CFB7FF" fill-rule="evenodd"/>
<path d="M826.982 361.608H826.232H826.982ZM829.094 342.418L829.816 342.216V342.216L829.094 342.418ZM828.058 341.633L828.058 340.883L828.058 341.633ZM826.982 342.708L826.232 342.708L826.982 342.708ZM826.982 359.233H827.732H826.982ZM826.982 360.078H827.732H826.982ZM832.055 365.279L832.074 364.529L832.055 365.279ZM830.654 364.53C829.041 364.53 827.732 363.222 827.732 361.608H826.232C826.232 364.051 828.212 366.03 830.654 366.03V364.53ZM832.185 364.53C832.148 364.53 832.111 364.53 832.074 364.529L832.037 366.029C832.086 366.03 832.136 366.03 832.185 366.03V364.53ZM836.637 360.078C836.637 362.537 834.644 364.53 832.185 364.53V366.03C835.472 366.03 838.137 363.365 838.137 360.078H836.637ZM836.637 359.233V360.078H838.137V359.233H836.637ZM835.004 355.786C836.038 356.632 836.637 357.897 836.637 359.233H838.137C838.137 357.447 837.336 355.756 835.954 354.626L835.004 355.786ZM828.372 342.621L830.7 350.936L832.145 350.531L829.816 342.216L828.372 342.621ZM828.058 342.383C828.204 342.383 828.333 342.48 828.372 342.621L829.816 342.216C829.596 341.428 828.877 340.883 828.058 340.883L828.058 342.383ZM827.732 342.708C827.732 342.528 827.878 342.383 828.058 342.383L828.058 340.883C827.05 340.883 826.232 341.7 826.232 342.708L827.732 342.708ZM827.732 359.233L827.732 342.708L826.232 342.708L826.232 359.233H827.732ZM827.732 360.078L827.732 359.233H826.232L826.232 360.078H827.732ZM827.732 361.608V360.078H826.232V361.608H827.732ZM835.954 354.626C835.116 353.94 834.308 353.367 833.584 352.677C832.88 352.008 832.367 351.323 832.145 350.531L830.7 350.936C831.026 352.098 831.755 353.007 832.55 353.764C833.325 354.501 834.272 355.187 835.004 355.786L835.954 354.626ZM830.654 366.03C831.151 366.03 831.581 366.017 832.037 366.029L832.074 364.529C831.598 364.517 831.09 364.53 830.654 364.53V366.03Z" fill="#AF87FF"/>
<rect fill="#CFB7FF" height="12.2969" rx="4.25661" stroke="#AF87FF" stroke-linecap="round" stroke-width="1.5" transform="rotate(180 843.064 366.226)" width="8.51322" x="843.064" y="366.226"/>
<rect fill="#CFB7FF" height="263.669" stroke="#AF87FF" stroke-linecap="round" stroke-width="1.5" width="306.261" x="163.051" y="413.331"/>
<rect fill="#CFB7FF" height="263.669" stroke="#AF87FF" stroke-linecap="round" stroke-width="1.5" width="306.261" x="-143.211" y="413.331"/>
<rect fill="#CFB7FF" height="51.0793" rx="6.02102" stroke="#AF87FF" stroke-linecap="round" stroke-width="1.5" width="231.749" x="-226" y="413.522"/>
<mask fill="white" id="path-16-inside-1_1234_1546">
<path clip-rule="evenodd" d="M979.333 323.957C979.333 318.218 974.681 313.566 968.942 313.566H967.956C962.217 313.566 957.565 318.218 957.565 323.957V332.446C957.565 337.689 953.315 341.94 948.072 341.94C942.829 341.94 938.578 346.19 938.578 351.433V403.413C938.578 409.152 943.23 413.804 948.969 413.804H986.985C992.724 413.804 997.376 409.152 997.376 403.413V350.961C997.376 345.979 993.337 341.94 988.355 341.94C983.372 341.94 979.333 337.901 979.333 332.918V323.957Z" fill-rule="evenodd"/>
</mask>
<path clip-rule="evenodd" d="M979.333 323.957C979.333 318.218 974.681 313.566 968.942 313.566H967.956C962.217 313.566 957.565 318.218 957.565 323.957V332.446C957.565 337.689 953.315 341.94 948.072 341.94C942.829 341.94 938.578 346.19 938.578 351.433V403.413C938.578 409.152 943.23 413.804 948.969 413.804H986.985C992.724 413.804 997.376 409.152 997.376 403.413V350.961C997.376 345.979 993.337 341.94 988.355 341.94C983.372 341.94 979.333 337.901 979.333 332.918V323.957Z" fill="#CFB7FF" fill-rule="evenodd"/>
<path d="M967.956 315.066H968.942V312.066H967.956V315.066ZM959.065 332.446V323.957H956.065V332.446H959.065ZM940.078 403.413V351.433H937.078V403.413H940.078ZM986.985 412.304H948.969V415.304H986.985V412.304ZM995.876 350.961V403.413H998.876V350.961H995.876ZM977.833 323.957V332.918H980.833V323.957H977.833ZM988.355 340.44C984.201 340.44 980.833 337.072 980.833 332.918H977.833C977.833 338.729 982.544 343.44 988.355 343.44V340.44ZM998.876 350.961C998.876 345.15 994.165 340.44 988.355 340.44V343.44C992.509 343.44 995.876 346.807 995.876 350.961H998.876ZM986.985 415.304C993.552 415.304 998.876 409.98 998.876 403.413H995.876C995.876 408.323 991.895 412.304 986.985 412.304V415.304ZM937.078 403.413C937.078 409.98 942.402 415.304 948.969 415.304V412.304C944.059 412.304 940.078 408.323 940.078 403.413H937.078ZM948.072 340.44C942 340.44 937.078 345.362 937.078 351.433H940.078C940.078 347.019 943.657 343.44 948.072 343.44V340.44ZM956.065 332.446C956.065 336.861 952.486 340.44 948.072 340.44V343.44C954.143 343.44 959.065 338.518 959.065 332.446H956.065ZM968.942 315.066C973.853 315.066 977.833 319.047 977.833 323.957H980.833C980.833 317.39 975.51 312.066 968.942 312.066V315.066ZM967.956 312.066C961.389 312.066 956.065 317.39 956.065 323.957H959.065C959.065 319.047 963.046 315.066 967.956 315.066V312.066Z" fill="#AF87FF" mask="url(#path-16-inside-1_1234_1546)"/>
<circle cx="968.451" cy="321.478" fill="#CFB7FF" r="2.5607" stroke="#AF87FF" stroke-linecap="round" stroke-width="1.5"/>
<rect fill="#CFB7FF" height="53" stroke="#AF87FF" stroke-linecap="round" stroke-width="1.5" width="307" x="469" y="413"/>
<rect fill="#CFB7FF" height="53" stroke="#AF87FF" stroke-linecap="round" stroke-width="1.5" width="307" x="469" y="466"/>
<rect fill="#CFB7FF" height="52" stroke="#AF87FF" stroke-linecap="round" stroke-width="1.5" width="307" x="469" y="519"/>
<rect fill="#CFB7FF" height="53" stroke="#AF87FF" stroke-linecap="round" stroke-width="1.5" width="307" x="469" y="571"/>
<rect fill="#CFB7FF" height="53" stroke="#AF87FF" stroke-linecap="round" stroke-width="1.5" width="307" x="469" y="624"/>
<rect fill="#CFB7FF" height="263.669" stroke="#AF87FF" stroke-linecap="round" stroke-width="1.5" width="306.261" x="775.572" y="413.331"/>
<mask height="133" id="mask0_1234_1546" maskUnits="userSpaceOnUse" style="mask-type:luminance" width="293" x="487" y="155">
<rect fill="white" height="133" rx="8.54468" width="293" x="487" y="155"/>
</mask>
<g mask="url(#mask0_1234_1546)">
<g clip-path="url(#clip1_1234_1546)">
<rect fill="white" height="636.129" transform="translate(486.428 23.1761)" width="293.779"/>
<g clip-path="url(#clip2_1234_1546)">
<circle cx="595.694" cy="196.44" fill="#F5F5F5" r="18.8016"/>
<path d="M586.225 177.021H585.186V172.941H583.695V172.053H587.716V172.941H586.225V177.021ZM590.628 171.926C592.092 171.926 593.018 172.928 593.018 174.535C593.018 176.147 592.095 177.148 590.628 177.148C589.152 177.148 588.236 176.147 588.236 174.535C588.236 172.924 589.165 171.926 590.628 171.926ZM590.628 172.838C589.819 172.838 589.3 173.496 589.3 174.535C589.3 175.572 589.809 176.236 590.628 176.236C591.438 176.236 591.954 175.572 591.954 174.535C591.954 173.496 591.434 172.838 590.628 172.838ZM593.999 172.053H595.954C597.431 172.053 598.285 172.945 598.285 174.501C598.285 176.116 597.441 177.021 595.954 177.021H593.999V172.053ZM595.038 172.941V176.133H595.789C596.708 176.133 597.225 175.568 597.225 174.518C597.225 173.513 596.691 172.941 595.789 172.941H595.038ZM602.23 177.021L601.855 175.837H600.109L599.727 177.021H598.684L600.409 172.053H601.631L603.356 177.021H602.23ZM600.956 173.086L600.333 175.035H601.635L601.018 173.086H600.956ZM606.041 177.021H605.001V175.193L603.27 172.053H604.395L605.49 174.133H605.552L606.644 172.053H607.769L606.041 175.193V177.021Z" fill="black"/>
<g clip-path="url(#clip3_1234_1546)">
<path d="M741.833 247.285C741.833 245.712 743.045 244.586 744.734 244.586C746.276 244.586 747.457 245.632 747.457 247.065C747.457 248.08 747.017 248.815 745.425 250.461L743.418 252.536V252.634H747.604V253.625H741.888V252.867L744.875 249.635C746.001 248.417 746.331 247.958 746.331 247.181C746.331 246.244 745.701 245.547 744.66 245.547C743.602 245.547 742.898 246.238 742.898 247.285H741.833ZM753.271 253.625V251.796H748.968V250.792C750.162 248.79 751.514 246.636 752.75 244.794H754.348V250.81H755.603V251.796H754.348V253.625H753.271ZM750.094 250.743V250.816H753.277V245.816H753.203C752.212 247.297 751.055 249.121 750.094 250.743Z" fill="black"/>
<path d="M702.978 247.285C702.978 245.712 704.19 244.586 705.879 244.586C707.421 244.586 708.602 245.632 708.602 247.065C708.602 248.08 708.162 248.815 706.571 250.461L704.563 252.536V252.634H708.749V253.625H703.033V252.867L706.02 249.635C707.146 248.417 707.476 247.958 707.476 247.181C707.476 246.244 706.846 245.547 705.805 245.547C704.747 245.547 704.043 246.238 704.043 247.285H702.978ZM712.42 249.555V248.613H713.467C714.483 248.613 715.205 247.964 715.205 247.046C715.205 246.22 714.575 245.547 713.51 245.547C712.445 245.547 711.753 246.091 711.662 247.083H710.591C710.701 245.645 711.796 244.586 713.583 244.586C715.328 244.586 716.331 245.687 716.325 246.924C716.319 247.989 715.658 248.693 714.752 248.956V249.054C715.897 249.237 716.656 250.015 716.656 251.245C716.656 252.726 715.303 253.834 713.547 253.834C711.753 253.834 710.517 252.848 710.438 251.349H711.502C711.6 252.279 712.396 252.873 713.534 252.873C714.697 252.873 715.523 252.206 715.523 251.214C715.523 250.192 714.758 249.555 713.516 249.555H712.42Z" fill="black"/>
<path d="M665.035 247.285C665.035 245.712 666.246 244.586 667.936 244.586C669.478 244.586 670.659 245.632 670.659 247.065C670.659 248.081 670.219 248.815 668.627 250.461L666.62 252.536V252.634H670.806V253.626H665.09V252.867L668.076 249.635C669.203 248.417 669.533 247.958 669.533 247.181C669.533 246.245 668.903 245.547 667.862 245.547C666.803 245.547 666.1 246.238 666.1 247.285H665.035ZM672.568 247.285C672.568 245.712 673.78 244.586 675.469 244.586C677.011 244.586 678.192 245.632 678.192 247.065C678.192 248.081 677.752 248.815 676.16 250.461L674.153 252.536V252.634H678.339V253.626H672.623V252.867L675.61 249.635C676.736 248.417 677.066 247.958 677.066 247.181C677.066 246.245 676.436 245.547 675.395 245.547C674.337 245.547 673.633 246.238 673.633 247.285H672.568Z" fill="black"/>
<path d="M627.816 247.285C627.816 245.712 629.027 244.586 630.717 244.586C632.259 244.586 633.44 245.632 633.44 247.065C633.44 248.081 633 248.815 631.408 250.461L629.401 252.536V252.634H633.587V253.626H627.871V252.867L630.857 249.635C631.984 248.417 632.314 247.958 632.314 247.181C632.314 246.245 631.684 245.547 630.643 245.547C629.584 245.547 628.881 246.238 628.881 247.285H627.816ZM637.515 253.626V246.018H637.417L635.171 247.646V246.483L637.521 244.794H638.617V253.626H637.515Z" fill="black"/>
<path d="M588.71 247.285C588.71 245.712 589.921 244.586 591.611 244.586C593.153 244.586 594.334 245.632 594.334 247.065C594.334 248.081 593.893 248.815 592.302 250.461L590.295 252.536V252.634H594.481V253.626H588.765V252.867L591.751 249.635C592.877 248.417 593.208 247.958 593.208 247.181C593.208 246.245 592.578 245.547 591.537 245.547C590.478 245.547 589.774 246.238 589.774 247.285H588.71ZM599.266 253.834C597.277 253.834 596.132 252.144 596.132 249.207C596.132 246.293 597.289 244.586 599.266 244.586C601.231 244.586 602.387 246.3 602.387 249.225C602.387 252.157 601.249 253.834 599.266 253.834ZM599.266 252.873C600.57 252.873 601.28 251.575 601.28 249.207C601.28 246.863 600.557 245.553 599.266 245.553C597.975 245.553 597.24 246.875 597.24 249.207C597.24 251.569 597.962 252.873 599.266 252.873Z" fill="#1DA4A6"/>
<path d="M552.825 253.626V246.018H552.727L550.481 247.646V246.483L552.831 244.794H553.927V253.626H552.825ZM559.342 253.828C557.843 253.828 556.722 252.958 556.447 251.569H557.579C557.812 252.365 558.485 252.848 559.354 252.848C560.793 252.848 561.607 251.575 561.668 249.225H561.57C561.135 250.082 560.272 250.584 559.22 250.584C557.536 250.584 556.319 249.341 556.319 247.628C556.319 245.853 557.604 244.586 559.415 244.586C561.319 244.586 562.739 246.049 562.739 249.054C562.739 252.089 561.502 253.828 559.342 253.828ZM559.415 249.629C560.584 249.629 561.423 248.797 561.423 247.628C561.423 246.446 560.56 245.553 559.428 245.553C558.295 245.553 557.432 246.434 557.432 247.591C557.432 248.797 558.246 249.629 559.415 249.629Z" fill="#1DA4A6"/>
<circle cx="518.546" cy="249.16" r="11.751" stroke="#1DA4A6" stroke-dasharray="0.01 3.13" stroke-linecap="round" stroke-linejoin="round" stroke-width="1.5668"/>
<path d="M514.737 253.626V246.018H514.639L512.393 247.646V246.483L514.743 244.794H515.838V253.626H514.737ZM521.45 253.834C519.577 253.834 518.267 252.775 518.267 251.263C518.267 250.113 518.995 249.219 520.103 249.011V248.913C519.204 248.668 518.628 247.903 518.628 246.942C518.628 245.565 519.797 244.586 521.45 244.586C523.102 244.586 524.271 245.565 524.271 246.942C524.271 247.909 523.708 248.662 522.796 248.913V249.011C523.904 249.219 524.632 250.113 524.632 251.263C524.632 252.775 523.322 253.834 521.45 253.834ZM521.45 252.891C522.674 252.891 523.518 252.193 523.518 251.184C523.518 250.174 522.674 249.476 521.45 249.476C520.226 249.476 519.381 250.174 519.381 251.184C519.381 252.193 520.226 252.891 521.45 252.891ZM521.45 248.546C522.49 248.546 523.188 247.946 523.188 247.046C523.188 246.134 522.496 245.528 521.45 245.528C520.403 245.528 519.712 246.134 519.712 247.046C519.712 247.946 520.409 248.546 521.45 248.546Z" fill="#1DA4A6"/>
<path d="M745.23 200.355V192.747H745.132L742.886 194.375V193.212L745.236 191.523H746.331V200.355H745.23ZM749.292 200.355L753.258 192.594V192.508H748.534V191.523H754.378V192.545L750.449 200.355H749.292Z" fill="#1DA4A6"/>
<path d="M705.94 200.355V192.747H705.842L703.596 194.375V193.212L705.946 191.523H707.042V200.355H705.94ZM712.757 200.557C710.835 200.557 709.434 199.063 709.434 196.089C709.434 193.053 710.744 191.315 712.831 191.315C714.44 191.315 715.499 192.202 715.725 193.573H714.593C714.41 192.753 713.761 192.294 712.867 192.294C711.398 192.294 710.542 193.518 710.505 195.918H710.603C711.037 195.061 711.9 194.559 712.953 194.559C714.636 194.559 715.854 195.801 715.854 197.515C715.854 199.29 714.569 200.557 712.757 200.557ZM712.745 199.59C713.877 199.59 714.74 198.708 714.74 197.552C714.74 196.346 713.926 195.514 712.757 195.514C711.588 195.514 710.75 196.346 710.75 197.515C710.75 198.696 711.613 199.59 712.745 199.59Z" fill="#1DA4A6"/>
<path d="M667.972 200.355V192.747H667.874L665.628 194.375V193.212L667.979 191.523H669.074V200.355H667.972ZM674.606 200.563C672.935 200.563 671.735 199.535 671.637 198.023H672.721C672.819 198.965 673.578 199.596 674.618 199.596C675.775 199.596 676.54 198.763 676.54 197.527C676.54 196.334 675.775 195.532 674.661 195.532C673.822 195.532 673.161 195.918 672.813 196.572H671.778L672.286 191.523H677.189V192.508H673.149L672.874 195.385H672.972C673.4 194.853 674.055 194.583 674.936 194.583C676.417 194.583 677.641 195.746 677.641 197.497C677.641 199.314 676.411 200.563 674.606 200.563Z" fill="#1DA4A6"/>
<path d="M629.737 200.355V192.747H629.639L627.393 194.375V193.212L629.744 191.523H630.839V200.355H629.737ZM637.466 200.355V198.525H633.164V197.521C634.357 195.52 635.71 193.365 636.946 191.523H638.543V197.539H639.798V198.525H638.543V200.355H637.466ZM634.29 197.472V197.546H637.472V192.545H637.399C636.407 194.026 635.251 195.85 634.29 197.472Z" fill="#1DA4A6"/>
<path d="M591.757 200.355V192.747H591.66L589.413 194.375V193.212L591.764 191.523H592.859V200.355H591.757ZM597.308 196.285V195.342H598.354C599.37 195.342 600.092 194.693 600.092 193.775C600.092 192.949 599.462 192.276 598.397 192.276C597.332 192.276 596.64 192.821 596.549 193.812H595.478C595.588 192.374 596.683 191.315 598.47 191.315C600.215 191.315 601.218 192.417 601.212 193.653C601.206 194.718 600.545 195.422 599.639 195.685V195.783C600.784 195.966 601.543 196.744 601.543 197.974C601.543 199.455 600.19 200.563 598.434 200.563C596.64 200.563 595.404 199.577 595.325 198.078H596.389C596.487 199.008 597.283 199.602 598.421 199.602C599.584 199.602 600.411 198.935 600.411 197.943C600.411 196.921 599.645 196.285 598.403 196.285H597.308Z" fill="black"/>
<path d="M553.033 200.355V192.747H552.935L550.689 194.375V193.212L553.039 191.523H554.135V200.355H553.033ZM556.674 194.014C556.674 192.441 557.885 191.315 559.575 191.315C561.117 191.315 562.298 192.362 562.298 193.794C562.298 194.81 561.857 195.544 560.266 197.191L558.259 199.265V199.363H562.445V200.355H556.729V199.596L559.715 196.364C560.841 195.146 561.172 194.687 561.172 193.91C561.172 192.974 560.542 192.276 559.501 192.276C558.442 192.276 557.738 192.968 557.738 194.014H556.674Z" fill="black"/>
<path d="M515.814 200.355V192.747H515.716L513.47 194.375V193.212L515.82 191.523H516.916V200.355H515.814ZM521.621 200.355V192.747H521.523L519.277 194.375V193.212L521.627 191.523H522.723V200.355H521.621Z" fill="black"/>
<circle cx="557.294" cy="143.282" fill="#FF5A7D" r="11.751"/>
</g>
</g>
</g>
<path clip-rule="evenodd" d="M515.528 616.368L751.224 616.324C777.908 616.319 799.515 594.717 799.51 568.08L799.414 52.1036C799.409 25.4669 777.78 3.8725 751.111 3.87744L515.414 3.92113C488.745 3.92607 467.124 25.5285 467.129 52.1652L467.225 568.142C467.229 594.779 488.858 616.373 515.528 616.368ZM714.075 37.2579C718.8 37.257 722.627 33.4092 722.626 28.6593C722.625 23.9095 726.452 23.4289 731.177 23.428L747.315 23.425C765.291 23.4217 779.857 38.0574 779.86 56.1262L779.954 564.066C779.958 582.135 765.397 596.776 747.422 596.78L519.306 596.822C501.33 596.825 486.765 582.19 486.762 564.121L486.667 56.1805C486.664 38.1117 501.224 23.4706 519.2 23.4673L535.352 23.4643C540.077 23.4634 543.904 23.9426 543.905 28.6925C543.906 33.4423 547.734 37.2887 552.46 37.2878L714.075 37.2579Z" fill="#BB9CC2" fill-rule="evenodd"/>
</g>
<path d="M487.289 231.691L476.373 218.64C474.982 216.978 474.917 214.577 476.216 212.842L487.289 198.046L487.289 231.691Z" fill="white"/>
<path d="M352.098 192.614L346.763 190.327C343.95 189.122 340.921 188.5 337.861 188.5L332.919 188.5C329.177 188.5 325.639 186.799 323.302 183.878C319.636 179.296 319.712 172.766 323.482 168.27L325.498 165.867C328.369 162.443 329.693 157.982 329.155 153.546L328.89 151.371C328.462 147.847 328.926 144.272 330.24 140.974L336.334 125.671C336.777 124.559 337.311 123.485 337.931 122.462C347.232 107.11 366.134 100.542 382.95 106.817L395.499 111.5L400.259 113.404C407.772 116.411 411.857 124.555 409.773 132.374C409.094 134.923 409.056 137.6 409.661 140.167L411.732 148.944C412.839 153.634 412.641 158.537 411.16 163.123L411.073 163.393C409.55 168.11 409.437 173.168 410.748 177.948L412.177 183.157C412.666 184.941 412.579 186.833 411.93 188.564C410.185 193.214 404.934 195.493 400.346 193.591L397.392 192.366C394.71 191.254 391.713 191.163 388.969 192.111L381.847 194.571C377.091 196.214 372.014 196.702 367.033 195.995L361.241 195.173C358.094 194.726 355.019 193.866 352.098 192.614Z" fill="#391D0F"/>
<path d="M396.866 209.424C391.55 218.667 340.522 208.846 332.562 202.934L339.319 200.347C345.701 197.904 350.372 192.366 351.117 185.574C351.869 178.729 352.611 168.842 352.611 156.483L386.46 176.792L384.219 189.489C383.269 194.873 387.411 199.81 392.879 199.81L406.431 199.81C406.431 199.81 397.607 208.134 396.866 209.424Z" fill="#D19174"/>
<path d="M437.632 715H459.41C461.116 715 462.5 713.616 462.5 711.91C462.5 710.739 461.839 709.669 460.792 709.146L455.5 706.5L441 696L435 664L414.5 651.5H409.997C408.728 651.5 407.521 652.048 406.685 653.003C405.391 654.481 405.234 656.637 406.299 658.288L413.552 669.531C414.179 670.503 414.633 671.576 414.893 672.704L417.5 684L422.709 703.535C423.231 705.493 424.133 707.328 425.364 708.937C428.286 712.759 432.822 715 437.632 715Z" fill="white"/>
<path d="M372.209 687.985C372.041 690.77 372.353 693.564 373.133 696.243L374.541 701.086C375.83 705.515 372.507 709.942 367.895 709.942H351.448H319.02C316.053 709.942 314.255 706.665 315.85 704.163C316.366 703.353 317.172 702.772 318.104 702.537L328.966 699.807C329.52 699.668 330.036 699.41 330.48 699.051L346.546 686.053C347.924 684.938 348.399 683.045 347.71 681.412C347.077 679.908 346.966 678.235 347.396 676.661L348.199 673.719C348.639 672.106 348.611 670.399 348.116 668.801L326.022 597.366C323.007 587.618 321.603 577.443 321.868 567.242L322.59 539.372L315.532 505.469L306.575 460.788L294.389 406.223H373.771L367.677 508.432C366.94 520.782 367.431 533.175 369.141 545.429L370.625 556.06C372.716 571.038 373.089 586.205 371.739 601.267L369.776 623.167V664.011C369.776 665.957 370.009 667.896 370.472 669.787L371.873 675.519C372.452 677.887 372.671 680.327 372.524 682.76L372.209 687.985Z" fill="#D19174"/>
<path d="M472.436 539.318L449.542 645.533C449.291 646.698 449.24 647.897 449.392 649.079L453.487 680.873L453.487 696.234C453.487 697.285 454.007 698.268 454.874 698.86L462.154 703.831C463.16 704.519 463.762 705.659 463.762 706.877C463.762 708.915 462.111 710.566 460.073 710.566L437.662 710.566C432.732 710.566 428.469 707.129 427.424 702.311L420.232 669.164C420.023 668.202 419.68 667.275 419.213 666.409L414.48 657.639C412.317 653.632 413.046 648.679 416.271 645.464L418.175 643.567C422.965 638.793 425.657 632.309 425.657 625.546L425.657 600.377C425.657 599.155 425.569 597.936 425.401 596.726C424.541 590.507 421.817 569.901 422.057 559.959C422.649 535.073 438.114 518.557 438.114 518.557L370.144 406.511C370.144 406.511 414.59 330.529 427.078 348.07C456.925 389.995 478.722 501.385 478.722 514.608C478.722 527.83 472.436 539.318 472.436 539.318Z" fill="#D19174"/>
<path d="M432.5 705.671L433.358 707.473C434.081 708.991 435.612 709.957 437.292 709.957H440.729C444.331 709.957 445.559 705.155 442.399 703.426V703.426" stroke="#A26750" stroke-linecap="round" stroke-width="1.5"/>
<path d="M445.852 709.401H447.105C449.616 709.401 450.668 706.193 448.644 704.707V704.707" stroke="#A26750" stroke-linecap="round" stroke-width="1.5"/>
<path d="M451.566 709.401H452.361C454.955 709.401 455.827 705.935 453.542 704.707V704.707" stroke="#A26750" stroke-linecap="round" stroke-width="1.5"/>
<path d="M456.158 709.401H456.851C459.445 709.401 460.317 705.935 458.032 704.707V704.707" stroke="#A26750" stroke-linecap="round" stroke-width="1.5"/>
<path d="M441.634 378.196L429.197 389.101L374.943 409.897L297.097 417.461C288.99 388.856 295.182 377.735 302.29 354.379C306.228 341.443 314.906 326.571 321.866 315.876C327.771 306.802 328.871 295.224 323.998 285.556L317.134 271.938C316.791 271.257 316.46 270.57 316.223 269.846C315.69 268.21 314.761 264.639 314.361 258.707C314.589 249.844 311.77 221.443 314.361 218.088C322.67 211.078 330.294 202.194 330.294 202.194L406.489 199.62L428.646 221.822L425.023 274.27C425.023 274.27 420.865 281.89 417.556 288.946C415.482 293.37 415.667 298.427 417.327 303.022C420.537 311.907 425.348 327.677 425.023 341.638C434.708 358.384 441.634 378.196 441.634 378.196Z" fill="#D19174"/>
<path d="M375.232 256.622C375.232 259.699 374.821 266.684 373.173 270.007" stroke="#A26750" stroke-linecap="round" stroke-miterlimit="10" stroke-width="1.5"/>
<path d="M351.795 355.449C368.663 361.15 387.117 359.803 402.977 351.711L424.38 340.791C424.563 340.698 424.787 340.769 424.882 340.951L428.314 347.502C428.386 347.64 428.365 347.808 428.262 347.924L417.263 360.311L384.698 399.982C384.467 400.263 384.244 400.549 384.01 400.826C382.784 402.277 378.381 406.962 372.602 406.962C360.434 359.35 306.402 360.074 300.642 360.288C300.383 360.298 300.22 360.053 300.295 359.805C300.954 357.627 303.737 348.792 307.782 340.908C307.867 340.744 308.059 340.666 308.234 340.725L351.795 355.449Z" fill="#6F9C94"/>
<path d="M322.604 248.805C317.218 259.813 315.937 276.329 315.937 276.329C315.937 276.329 321.915 286.221 344.767 286.626C355.835 286.817 375.966 276.769 378.746 276.329C378.746 276.329 364.717 267.314 351.975 248.805C348.424 241.955 337.559 224.332 337.559 224.332C337.559 224.332 330.831 231.993 322.604 248.805Z" fill="#6F9C94"/>
<path d="M400.883 200.649L385.412 204.296C384.63 204.48 384.082 205.276 383.825 206.038C383.291 207.618 381.709 209.721 378.659 210.079" stroke="#A26750" stroke-linecap="round" stroke-miterlimit="10" stroke-width="1.5"/>
<path d="M421.317 263.022C422.416 264.831 438.629 306.598 441.166 313.141C441.394 313.73 441.729 314.245 441.922 314.846C442.618 317.02 442.563 321.846 445.999 327C447.999 329.5 449.999 329.977 452.499 330.5C459.416 331.948 476.285 311.909 477.499 304C472.999 300.5 470.645 297.357 469.999 295.5C461.999 272.5 462.442 272.304 455.499 254C440.605 214.735 438.587 199.471 408.122 199.471C403.045 200.487 411.789 224.973 419.446 255.263C419.446 255.263 421.052 262.592 421.317 263.022Z" fill="#7BCF5E"/>
<path d="M418.666 256.812L410.735 235.86" stroke="#A26750" stroke-linecap="round" stroke-miterlimit="10" stroke-width="1.5"/>
<path d="M392.82 122.006C395.945 125.409 398.688 125.696 401.006 132.249C401.006 132.249 405.317 141 400.19 152.69C399.296 154.728 398.916 156.97 399.133 159.184C400.235 170.428 396.242 180.812 389.167 186.916C385.195 190.343 380.948 190.402 376.847 189.227C360.037 184.395 352.61 162.206 352.61 162.206C348.327 163.173 344.702 154.688 343.132 151.036C339.408 137.835 347.532 134.111 353.805 140.109C354.196 140.369 353.335 140.068 353.805 140.109C354.274 140.149 356.75 126.939 360.509 123.309C367.204 116.823 384.441 112.886 392.82 122.006Z" fill="#D19174"/>
<g opacity="0.69">
<path d="M391 172.5C391 172.5 389.272 168.079 386.256 169.288C385.632 169.538 384.812 169.365 384.337 168.89C383.903 168.455 383.269 168.04 382.397 167.96C380.451 167.783 376 169.5 376 169.5C378.5 183 388.021 179.882 391 172.5Z" fill="#A26750" opacity="0.69"/>
</g>
<path d="M374.001 168C382.463 174.77 391.501 172.5 391.501 172.5" stroke="#A26750" stroke-linecap="round" stroke-width="1.5"/>
<path d="M389.455 148.749C387.936 153.726 389.168 158.182 390.501 161.085C391.078 162.342 389.936 164.066 388.577 163.81L383.391 162.831" stroke="#A26750" stroke-linecap="round" stroke-width="1.5"/>
<path d="M392.891 144.943C398.646 141.896 401.354 146.974 401.354 146.974" stroke="#A26750" stroke-linecap="round" stroke-width="1.5"/>
<path d="M371.17 142.201C379.891 136.951 384.171 142.754 384.171 142.754" stroke="#A26750" stroke-linecap="round" stroke-width="1.5"/>
<path d="M393.585 153.586C393.766 152.2 394.655 151.174 395.553 151.287C396.466 151.4 397.049 152.623 396.87 154C396.689 155.385 395.796 156.41 394.893 156.295C393.989 156.185 393.407 154.962 393.585 153.586Z" fill="#391D0F"/>
<path d="M405.516 230.51C405.516 214.818 405.372 209.563 403.313 201.841L408.461 201.841C410.352 205.044 413.994 224.966 415.559 236.143C417.284 248.465 427.138 248.014 428.683 253.677L402.426 250.022C403.799 248.134 405.516 240.539 405.516 230.51Z" fill="white"/>
<path d="M375.345 150.515C375.526 149.129 376.414 148.103 377.313 148.216C378.226 148.329 378.808 149.552 378.63 150.928C378.449 152.314 377.556 153.339 376.653 153.224C375.748 153.114 375.166 151.891 375.345 150.515Z" fill="#391D0F"/>
<path d="M410.436 228.02C410.436 228.02 402.992 246.468 395.162 256.251C388.481 264.598 373.025 276.329 373.025 276.329C375.565 277.151 393.507 282.937 404.061 284.095C419.069 285.738 436.693 276.386 430.17 257.281C424.373 240.262 410.436 228.02 410.436 228.02Z" fill="#6F9C94"/>
<path d="M384.089 189.624C374.273 190.639 367.165 187.932 357.75 173.444M347.87 141.219C351.932 142.235 353.625 145.62 354.64 148.666" stroke="#A26750" stroke-linecap="round" stroke-width="1.5"/>
<path d="M372.053 422.541V422.541C373.379 409.605 369.86 396.547 362.271 385.988V385.988" stroke="#A26750" stroke-linecap="round" stroke-miterlimit="10" stroke-width="1.5"/>
<path d="M313.876 281.992C313.876 281.992 315.421 280.963 316.965 280.963C318.663 280.963 321.084 281.134 322.113 281.478L317.995 262.944C317.995 263.459 317.789 265.312 316.965 268.607C316.141 271.902 313.361 271.353 312.332 271.696L313.876 281.992Z" fill="#6F9C94"/>
<path clip-rule="evenodd" d="M345.281 234.114C341.986 224.641 339.03 208.394 338 200.5L331.5 202C331.541 202.658 331.883 203.642 332.323 204.906C333.718 208.913 336.094 215.739 332.963 223.958C331.853 226.871 330.785 229.94 329.725 232.987L329.725 232.987L329.724 232.987C328.915 235.312 328.11 237.624 327.295 239.845C325.818 242.477 324.24 245.46 322.604 248.805C321.828 250.39 321.138 252.089 320.524 253.836C320.189 254.26 319.848 254.649 319.5 255L320.15 254.935C319.27 257.602 318.562 260.348 317.995 262.946L317.995 262.944C317.995 262.945 317.995 262.947 317.995 262.948C317.526 265.096 317.155 267.144 316.864 268.962C316.139 271.226 314.387 271.42 313.183 271.553C312.844 271.591 312.549 271.624 312.332 271.696L313.876 281.993C313.876 281.993 315.421 280.963 316.965 280.963C318.588 280.963 320.87 281.12 321.968 281.433C326.337 283.922 333.502 286.426 344.766 286.626C352.761 286.764 365.484 281.56 372.981 278.493L372.981 278.493L372.981 278.493C374.338 277.938 375.523 277.453 376.479 277.083C383.108 278.332 397.024 280.466 405.415 281.387C420.423 283.03 436.693 276.386 430.17 257.281C429.656 255.77 429.077 254.298 428.45 252.868C427.427 249.495 425.715 245.883 423.421 241.046C422.012 238.073 420.383 234.637 418.56 230.51C416.036 224.796 413.621 217.85 411.629 212.121L411.629 212.121C409.881 207.091 408.459 203 407.575 201.502H402.426C404.486 209.225 405.516 214.819 405.516 230.51C405.516 234.024 405.305 237.24 404.972 240.016C402.23 245.514 398.737 251.785 395.162 256.251C390.231 262.413 380.517 270.419 375.768 274.188C370.971 270.521 361.14 262.119 351.974 248.805C351.271 247.45 350.283 245.674 349.149 243.695C347.918 241.055 346.578 237.842 345.281 234.114Z" fill="#6F9C94" fill-rule="evenodd"/>
<path d="M358.107 288.791C351.272 291.045 333.544 296.842 318.199 276.575" stroke="#4F706A" stroke-linecap="round" stroke-miterlimit="10" stroke-width="1.5"/>
<path d="M426.344 347.731C419.509 349.985 411.244 364.318 385.387 374.811" stroke="#4F706A" stroke-linecap="round" stroke-miterlimit="10" stroke-width="1.5"/>
<path d="M427.523 643.579C422.373 649.703 425.226 655.367 425.226 655.367" stroke="#A26750" stroke-linecap="round" stroke-width="1.5"/>
<path d="M343.982 705.671L343.124 707.473C342.402 708.991 340.871 709.957 339.19 709.957H335.753C332.151 709.957 330.924 705.155 334.084 703.426V703.426" stroke="#A26750" stroke-linecap="round" stroke-width="1.5"/>
<path d="M354.389 552.711C361.581 546.46 357.68 529.612 357.68 529.612" stroke="#A26750" stroke-linecap="round" stroke-width="1.5"/>
<path d="M461.998 536.078C458.559 527.182 458.722 515.089 458.722 515.089" stroke="#A26750" stroke-linecap="round" stroke-width="1.5"/>
<path d="M362.213 207.904L349.661 201.679" stroke="#A26750" stroke-linecap="round" stroke-width="1.5"/>
<path d="M330.631 709.401H329.377C326.866 709.401 325.815 706.193 327.839 704.707V704.707" stroke="#A26750" stroke-linecap="round" stroke-width="1.5"/>
<path d="M324.918 709.401H324.123C321.529 709.401 320.657 705.935 322.942 704.707V704.707" stroke="#A26750" stroke-linecap="round" stroke-width="1.5"/>
<path d="M320.324 709.401H319.631C317.037 709.401 316.165 705.935 318.451 704.707V704.707" stroke="#A26750" stroke-linecap="round" stroke-width="1.5"/>
<path d="M373.54 280.448C380.13 280.036 387.269 281.135 389.5 281.993V276.844H360.155L361.184 283.022C362.901 282.164 366.951 280.86 373.54 280.448Z" fill="#6F9C94"/>
<path d="M427.755 342.992L424.37 335.545C425.995 331.483 425.047 324.375 424.37 321.329C407.581 337.035 346.517 326.293 318.083 318.959C309.566 333.351 300.538 349.782 293.876 380.413C291.726 390.299 292.073 400.54 294.156 410.44L321.13 538.641V586.707L321.13 673.819C321.13 675.772 322.778 677.32 324.728 677.197L361.154 674.902C363.124 674.778 365.102 674.87 367.053 675.176L377.472 676.81C379.526 677.132 381.382 675.545 381.382 673.466V658.806L378.687 633.952C378.453 631.799 378.479 629.627 378.763 627.48L380.776 612.273C381.177 609.242 381.062 606.165 380.435 603.173L378.335 593.139C376.981 579.599 373.935 551.301 372.581 546.427C371.227 541.552 369.986 526.568 369.534 519.686L374.273 415.768L433.171 519.686L426.296 530.904C422.38 537.291 420.308 544.638 420.308 552.13V588.738L417.6 615.141L413.266 639.289C413.022 640.651 413.631 642.024 414.804 642.757L421.016 646.64C428.048 651.035 436.257 653.172 444.539 652.765L446.185 652.684C450.347 652.479 454.516 652.916 458.545 653.979L472.313 657.613C474.542 658.201 476.694 656.437 476.555 654.136L475.144 630.711L479.206 603.971V567.413V540.672C481.576 525.779 480.109 514.834 479.206 508.854C471.624 434.656 441.746 367.364 427.755 342.992Z" fill="white"/>
<path d="M400.434 201.543C386.745 235.952 364.767 227.213 341.282 200.6C340.488 199.7 339.276 199.265 338.096 199.481L325.193 201.841L320.793 238.736L328.916 296.957L314.86 319.569C313.986 320.975 314.256 322.816 315.536 323.865C349.882 352.031 401.817 349.451 426.708 343.153C428.452 342.711 429.465 340.943 429.052 339.192L424.371 319.298L419.633 296.957V285.11C430.469 277.885 435.25 264.385 431.375 251.951L415.232 200.148L403.902 199.319C402.394 199.209 400.993 200.138 400.434 201.543Z" fill="#7BCF5E"/>
<path d="M304.883 212.334C314.09 203.127 327.9 200.148 338.394 200.148L330.947 240.767L367.504 313.205L353.254 321.28C349.451 323.435 344.754 323.732 341.215 321.168C325.624 309.873 315.012 285.846 304.883 270.893C290.666 249.907 293.374 223.843 304.883 212.334Z" fill="#7BCF5E"/>
<path d="M346.001 327.5L343.548 324.451C341.775 322.248 341.019 319.397 341.465 316.604L342.619 309.386C342.87 307.818 343.491 306.332 344.43 305.052L354.001 292L396.501 256.075L411.17 242.798L423.561 256.075C400.082 289.462 389.46 305.309 371.239 321.133C366.338 325.389 359.974 327.5 353.484 327.5H346.001Z" fill="#D19174"/>
<path d="M437.894 204.712L427.553 243.861C427.079 245.655 428.657 247.476 430.686 247.476L453.307 247.476C454.615 247.476 455.717 246.694 456.036 245.542L466.651 207.168C467.138 205.408 465.636 203.595 463.637 203.527L440.741 202.752C439.379 202.706 438.212 203.509 437.894 204.712Z" fill="#AF87FF"/>
<path d="M466.434 206.311L443.352 205.446C441.993 205.395 440.78 206.294 440.434 207.61L430.5 245.361" stroke="#8D60E7" stroke-linecap="round" stroke-width="1.5"/>
<path d="M407.645 246.015L402.37 250.584L423.153 256.79L425.166 254.883C426.699 253.431 428.599 252.423 430.662 251.969L442.021 249.47C445.798 248.639 449.404 247.167 452.683 245.118L456.867 242.504L448.924 240.599L443.479 235.837V226.551L432.157 230.274H429.449L432.157 226.551L433.511 221.473C428.793 222.426 422.825 224.35 421.664 224.858C420.883 225.2 418.659 227.57 416.698 229.987C414.962 232.126 413.846 234.673 413.118 237.33C412.194 240.703 410.289 243.726 407.645 246.015Z" fill="#D19174"/>
<path d="M444.513 226.02L433.818 229.777C431.98 230.423 431.286 232.66 432.436 234.233L433.174 235.243C434.072 236.472 435.768 236.799 437.059 235.993L444.931 231.074L450.635 228.433C450.944 228.29 451.225 228.094 451.465 227.854L461.009 218.342C461.713 217.641 461.714 216.503 461.012 215.801C460.381 215.171 459.384 215.098 458.669 215.631L445.286 225.609C445.051 225.784 444.79 225.923 444.513 226.02Z" fill="#D19174"/>
<path d="M452.654 227.417L442.026 233.614L438.931 235.181C437.186 236.065 436.982 238.477 438.555 239.641C439.349 240.229 440.405 240.322 441.29 239.882L455.248 232.946C455.624 232.759 455.955 232.492 456.219 232.164L465.24 220.946C465.699 220.374 465.767 219.581 465.411 218.939C464.847 217.924 463.484 217.699 462.623 218.478L453.14 227.061C452.99 227.196 452.827 227.316 452.654 227.417Z" fill="#D19174"/>
<path d="M459.949 235.801L449.787 242.942C448.76 243.664 447.385 243.645 446.379 242.894L445.783 242.449C444.055 241.16 444.285 238.503 446.208 237.529L455.244 232.954C455.623 232.761 455.956 232.488 456.218 232.154L461.955 224.833C462.523 224.109 463.582 224.009 464.275 224.615C464.81 225.083 464.973 225.848 464.675 226.494L460.917 234.641C460.702 235.106 460.369 235.506 459.949 235.801Z" fill="#D19174"/>
<path d="M459.272 240.475L451.99 245.519C451.237 246.041 450.249 246.071 449.466 245.597C447.939 244.672 447.983 242.442 449.545 241.579L459.143 236.277C459.59 236.03 459.959 235.663 460.207 235.217L461.359 233.149C461.698 232.541 462.533 232.443 463.004 232.957C463.3 233.281 463.356 233.759 463.142 234.142L460.155 239.501C459.939 239.889 459.637 240.222 459.272 240.475Z" fill="#D19174"/>
<path d="M439.122 234.884L451.482 228.088C451.71 227.963 451.92 227.808 452.107 227.626L461.5 218.5" stroke="#A26750" stroke-linecap="round" stroke-width="1.5"/>
<path d="M463 224.5L455.813 232.645C455.606 232.88 455.362 233.08 455.09 233.237L446 238.5" stroke="#A26750" stroke-linecap="round" stroke-width="1.5"/>
<path d="M462 233.5L457.282 238.218C457.095 238.405 456.883 238.566 456.652 238.696L449 243" stroke="#A26750" stroke-linecap="round" stroke-width="1.5"/>
<path d="M431.139 230.757H426.057" stroke="#A26750" stroke-linecap="round" stroke-width="1.5"/>
<path d="M396.614 382.257C393.003 386.545 390.521 391.397 376.643 396.813" stroke="#E6E6E6" stroke-linecap="round" stroke-width="1.5"/>
<path d="M377.658 389.704L374.273 415.43" stroke="#E6E6E6" stroke-linecap="round" stroke-width="1.5"/>
<path d="M433.172 519.347C434.977 521.152 440.145 524.763 446.373 524.763" stroke="#E6E6E6" stroke-linecap="round" stroke-width="1.5"/>
<path d="M433.172 518.332C437.798 518.896 448.066 519.144 452.127 515.624" stroke="#E6E6E6" stroke-linecap="round" stroke-width="1.5"/>
<rect fill="white" height="12.9809" rx="2.58807" transform="rotate(83.3719 536.895 383)" width="37.0195" x="536.895" y="383"/>
<path d="M533.037 387.103C533.287 387.652 533.934 387.894 534.481 387.644C535.029 387.394 535.271 386.747 535.021 386.199C534.771 385.651 534.124 385.409 533.576 385.658C533.028 385.908 532.787 386.555 533.037 387.103Z" fill="#CFB7FF"/>
<path d="M533.427 390.469C533.677 391.017 534.324 391.259 534.872 391.009C535.42 390.76 535.662 390.113 535.412 389.564C535.162 389.016 534.515 388.774 533.967 389.023C533.419 389.273 533.177 389.92 533.427 390.469Z" fill="#CFB7FF"/>
<path d="M533.82 393.833C534.07 394.382 534.717 394.624 535.265 394.374C535.813 394.124 536.054 393.477 535.804 392.929C535.554 392.38 534.907 392.138 534.359 392.388C533.812 392.638 533.57 393.285 533.82 393.833Z" fill="#CFB7FF"/>
<path d="M534.211 397.198C534.461 397.747 535.107 397.989 535.655 397.739C536.203 397.489 536.445 396.842 536.195 396.294C535.945 395.746 535.298 395.503 534.75 395.753C534.202 396.003 533.961 396.65 534.211 397.198Z" fill="#CFB7FF"/>
<path d="M534.601 400.563C534.851 401.112 535.498 401.354 536.046 401.104C536.594 400.854 536.835 400.207 536.585 399.659C536.335 399.11 535.689 398.868 535.141 399.118C534.593 399.368 534.351 400.015 534.601 400.563Z" fill="#CFB7FF"/>
<path d="M534.992 403.928C535.242 404.477 535.889 404.719 536.437 404.469C536.984 404.219 537.226 403.572 536.976 403.024C536.726 402.476 536.079 402.233 535.531 402.483C534.983 402.733 534.742 403.38 534.992 403.928Z" fill="#CFB7FF"/>
<path d="M535.382 407.293C535.632 407.842 536.279 408.084 536.827 407.834C537.375 407.584 537.617 406.937 537.367 406.389C537.117 405.84 536.47 405.598 535.922 405.848C535.374 406.098 535.133 406.745 535.382 407.293Z" fill="#CFB7FF"/>
<path d="M535.775 410.658C536.025 411.206 536.672 411.448 537.22 411.199C537.768 410.949 538.009 410.302 537.759 409.753C537.509 409.205 536.862 408.963 536.315 409.213C535.767 409.462 535.525 410.109 535.775 410.658Z" fill="#CFB7FF"/>
<path d="M536.166 414.023C536.416 414.571 537.062 414.813 537.61 414.564C538.158 414.314 538.4 413.667 538.15 413.118C537.9 412.57 537.253 412.328 536.705 412.578C536.157 412.827 535.916 413.475 536.166 414.023Z" fill="#CFB7FF"/>
<path d="M536.556 417.388C536.806 417.937 537.453 418.179 538.001 417.929C538.549 417.679 538.79 417.032 538.541 416.484C538.291 415.936 537.644 415.693 537.096 415.943C536.548 416.193 536.306 416.84 536.556 417.388Z" fill="#CFB7FF"/>
<path d="M533.185 417.78C533.435 418.328 534.082 418.57 534.63 418.321C535.178 418.071 535.419 417.424 535.169 416.876C534.919 416.327 534.273 416.085 533.725 416.335C533.177 416.585 532.935 417.232 533.185 417.78Z" fill="#CFB7FF"/>
<path d="M526.322 387.884C526.572 388.433 527.219 388.675 527.767 388.425C528.315 388.175 528.556 387.528 528.306 386.98C528.056 386.432 527.409 386.19 526.861 386.439C526.313 386.689 526.072 387.336 526.322 387.884Z" fill="#CFB7FF"/>
<path d="M526.713 391.249C526.963 391.798 527.609 392.04 528.157 391.79C528.705 391.54 528.947 390.893 528.697 390.345C528.447 389.796 527.8 389.554 527.252 389.804C526.704 390.054 526.463 390.701 526.713 391.249Z" fill="#CFB7FF"/>
<path d="M527.105 394.614C527.355 395.162 528.002 395.404 528.55 395.155C529.098 394.905 529.339 394.258 529.089 393.709C528.839 393.161 528.193 392.919 527.645 393.169C527.097 393.418 526.855 394.065 527.105 394.614Z" fill="#CFB7FF"/>
<path d="M527.496 397.979C527.746 398.527 528.393 398.77 528.94 398.52C529.488 398.27 529.73 397.623 529.48 397.075C529.23 396.526 528.583 396.284 528.035 396.534C527.487 396.784 527.246 397.431 527.496 397.979Z" fill="#CFB7FF"/>
<path d="M527.886 401.344C528.136 401.892 528.783 402.134 529.331 401.885C529.879 401.635 530.121 400.988 529.871 400.439C529.621 399.891 528.974 399.649 528.426 399.899C527.878 400.148 527.636 400.795 527.886 401.344Z" fill="#CFB7FF"/>
<path d="M528.277 404.709C528.527 405.257 529.174 405.499 529.722 405.25C530.27 405 530.511 404.353 530.261 403.804C530.011 403.256 529.364 403.014 528.816 403.264C528.269 403.514 528.027 404.161 528.277 404.709Z" fill="#CFB7FF"/>
<path d="M528.668 408.074C528.918 408.622 529.564 408.864 530.112 408.615C530.66 408.365 530.902 407.718 530.652 407.169C530.402 406.621 529.755 406.379 529.207 406.629C528.659 406.879 528.418 407.526 528.668 408.074Z" fill="#CFB7FF"/>
<path d="M529.06 411.439C529.31 411.987 529.957 412.229 530.505 411.979C531.053 411.73 531.294 411.082 531.044 410.534C530.794 409.986 530.148 409.744 529.6 409.993C529.052 410.243 528.81 410.89 529.06 411.439Z" fill="#CFB7FF"/>
<path d="M529.451 414.804C529.701 415.352 530.348 415.594 530.896 415.344C531.443 415.095 531.685 414.447 531.435 413.899C531.185 413.351 530.538 413.109 529.99 413.358C529.442 413.608 529.201 414.255 529.451 414.804Z" fill="#CFB7FF"/>
<path d="M529.841 418.169C530.091 418.717 530.738 418.96 531.286 418.71C531.834 418.46 532.076 417.813 531.826 417.265C531.576 416.716 530.929 416.474 530.381 416.724C529.833 416.974 529.591 417.621 529.841 418.169Z" fill="#CFB7FF"/>
<rect height="0.400644" rx="0.200322" stroke="#E6E6E6" stroke-linecap="round" stroke-width="0.400644" transform="rotate(83.3719 531.059 387.268)" width="27.3239" x="531.059" y="387.268"/>
<path d="M459.314 305.176L456.241 307.274C453.123 309.403 450.166 312.074 448.97 315.655C447.789 319.189 449.327 320.98 453.501 327.5C465.232 345.823 519.839 349.753 521.723 354.409C522.896 357.309 519.988 363.244 525.06 373.652L527.174 385.211C527.363 386.247 528.266 387 529.319 387C530.524 387 531.501 386.023 531.501 384.819L531.501 373.652L532.476 372.538C533.49 371.381 535.216 371.178 536.471 372.07L540.256 374.76C541.322 375.517 541.856 376.82 541.629 378.108L540.501 384.5L537.251 386L538.001 390L539.606 389.679C541.738 389.253 543.535 387.828 544.438 385.85L548.561 376.809C549.465 374.827 549.36 372.531 548.279 370.64L535.818 348.842C534.794 347.051 533.374 345.517 531.667 344.358L481.79 310.51L473.072 304.956C471.066 303.679 468.738 303 466.359 303C463.846 303 461.39 303.758 459.314 305.176Z" fill="#D19174"/>
<path d="M425.047 579.938C426.852 598.216 431.952 635.857 437.91 640.189" stroke="#E6E6E6" stroke-linecap="round" stroke-width="1.5"/>
<path d="M357.35 663.884C362.766 644.251 373.462 601.872 372.92 589.415" stroke="#E6E6E6" stroke-linecap="round" stroke-width="1.5"/>
<path d="M337.717 255.323L355.657 289.172" stroke="#4CBA37" stroke-linecap="round" stroke-width="1.5"/>
<path d="M325.5 304L336.696 318.778C337.542 319.895 338 321.259 338 322.66V322.66C338 325.025 339.299 327.199 341.381 328.32L342.394 328.866C343.757 329.6 345.33 329.844 346.851 329.559L352.5 328.5" stroke="#4CBA37" stroke-linecap="round" stroke-width="1.5"/>
<path d="M431.818 251.261C433.736 256.338 435.406 268.795 426.74 278.002" stroke="#4CBA37" stroke-linecap="round" stroke-width="1.5"/>
<path d="M355.657 141.862L353 139.5L351.256 124.972L359.38 117.186C366.262 115.945 380.231 113.395 381.043 113.124C381.856 112.854 392.439 117.033 397.629 118.5L398.446 121.325C399.077 123.508 398.255 125.85 396.398 127.16C395.188 128.015 393.676 128.327 392.226 128.021L390.525 127.663C387.129 126.948 383.617 128.18 381.41 130.859L380.874 131.51C379.036 133.741 376.375 135.135 373.494 135.376L369.677 135.694C367.441 135.88 365.525 137.366 364.788 139.485C363.46 143.303 358.679 144.548 355.657 141.862Z" fill="#391D0F"/>
<path d="M336.363 355.855C351.257 359.24 366.151 364.656 372.244 376.842" stroke="#E6E6E6" stroke-linecap="round" stroke-width="1.5"/>
<path d="M349.564 710.596C347.195 699.426 334.671 698.184 329.932 699.426L340.086 691.302C353.626 691.843 361.75 704.841 363.442 710.596H349.564Z" fill="white"/>
<path d="M460 715.477C460 714.084 461.129 712.955 462.523 712.955H473.638C475.525 712.955 477.392 712.563 479.121 711.804L506 700V718H462.523C461.129 718 460 716.871 460 715.477Z" fill="#8D60E7"/>
<rect fill="white" height="4.73891" rx="1.35397" width="62.2828" x="314.699" y="709.919"/>
<path d="M574.327 591.673L578 588L575 585L567 592.5V608.5C569.488 606.945 571 604.217 571 601.283V599.705C571 596.692 572.197 593.803 574.327 591.673Z" fill="#8D60E7"/>
<path d="M484 593H567V715H484V593Z" fill="#AF87FF"/>
<path d="M454 698C445.2 693.6 439.5 696 426 700L422.5 685C433.3 679.4 447.833 677.333 453.5 679V696L454 698Z" fill="white"/>
<ellipse cx="525.5" cy="714.5" fill="#AF87FF" rx="41.5" ry="6.5"/>
<ellipse cx="525.5" cy="592.5" fill="#AF87FF" rx="41.5" ry="6.5"/>
<ellipse cx="596.242" cy="560.67" fill="#AF87FF" rx="41.5" ry="6.5" transform="rotate(-34.6366 596.242 560.67)"/>
<ellipse cx="600.757" cy="566.802" fill="#AF87FF" rx="41.5" ry="6.5" transform="rotate(-34.6366 600.757 566.802)"/>
<path d="M562 595.596C554.975 597.623 541.264 599 525.5 599C509.736 599 496.025 597.623 489 595.596" stroke="#8D60E7" stroke-linecap="round" stroke-width="1.5"/>
<path d="M446 312.5C446 311.5 452.5 299 465.5 299.5" stroke="#4CBA37" stroke-linecap="round" stroke-width="1.5"/>
<path d="M447.5 299C448 298.5 459.5 293 468.5 297.5" stroke="#4CBA37" stroke-linecap="round" stroke-width="1.5"/>
<path d="M337.5 309C338.667 304.833 343.7 295.3 354.5 290.5" stroke="#4CBA37" stroke-linecap="round" stroke-width="1.5"/>
<path d="M335.5 298.5C337 297 345.5 289 353.5 289.5" stroke="#4CBA37" stroke-linecap="round" stroke-width="1.5"/>
<path d="M566.749 590.437L562.233 584.304L630.258 537.062L634.173 542.822L566.749 590.437Z" fill="#AF87FF"/>
<path d="M630.388 537.083C632.428 540.036 618.795 552.991 599.937 566.018C581.079 579.045 564.138 587.211 562.098 584.257" stroke="#8D60E7" stroke-linecap="round" stroke-width="1.5"/>
<rect fill="#CFB7FF" height="49.5" stroke="#AF87FF" stroke-linecap="round" stroke-width="1.5" width="5.5" x="191.75" y="498.75"/>
<rect fill="#CFB7FF" height="49.5" stroke="#AF87FF" stroke-linecap="round" stroke-width="1.5" width="5.5" x="125.75" y="498.75"/>
<path d="M142.963 340.601H145.444C147.122 340.601 148.482 341.961 148.482 343.639V343.639C148.482 344.628 148.001 345.555 147.192 346.124L141.137 350.382" stroke="white" stroke-linecap="round" stroke-width="1.5"/>
<rect fill="#CFB7FF" height="156.5" rx="4.13654" stroke="#AF87FF" stroke-linecap="round" stroke-width="1.5" width="137.5" x="57.75" y="230.75"/>
<path d="M64.543 314.968H187.571M64.543 358.337H187.571" stroke="#AF87FF" stroke-linecap="round" stroke-width="1.5"/>
<path d="M64.7638 360.859H187.57M187.57 245.046V386.75M64.543 245.046L64.7638 386.75" stroke="#AF87FF" stroke-linecap="round" stroke-width="1.5"/>
<rect fill="#CFB7FF" height="58.6276" rx="0.878848" stroke="#AF87FF" stroke-linecap="round" stroke-width="1.5" width="56.9121" x="100.703" y="245.111"/>
<mask fill="white" id="path-161-inside-2_1234_1546">
<path clip-rule="evenodd" d="M118.129 316.03C118.129 315.131 118.858 314.402 119.758 314.402H138.562C139.462 314.402 140.191 315.131 140.191 316.03V320.652C140.191 321.552 139.462 322.281 138.562 322.281H137.671V322.282V328.532C137.671 329.432 136.942 330.161 136.042 330.161H122.27C121.37 330.161 120.641 329.432 120.641 328.532V328.042H102.852C101.952 328.042 101.223 327.313 101.223 326.414V326.03C101.223 325.131 101.952 324.401 102.852 324.401H120.641V322.282V322.281H119.758C118.858 322.281 118.129 321.552 118.129 320.652V316.03Z" fill-rule="evenodd"/>
</mask>
<path d="M137.671 322.281V320.781H136.171V322.281H137.671ZM120.641 328.042H122.141V326.542H120.641V328.042ZM120.641 324.401V325.901H122.141V324.401H120.641ZM120.641 322.281H122.141V320.781H120.641V322.281ZM119.758 312.902C118.03 312.902 116.629 314.302 116.629 316.03H119.629C119.629 315.959 119.687 315.902 119.758 315.902V312.902ZM138.562 312.902H119.758V315.902H138.562V312.902ZM141.691 316.03C141.691 314.302 140.29 312.902 138.562 312.902V315.902C138.633 315.902 138.691 315.959 138.691 316.03H141.691ZM141.691 320.652V316.03H138.691V320.652H141.691ZM138.562 323.781C140.29 323.781 141.691 322.38 141.691 320.652H138.691C138.691 320.723 138.633 320.781 138.562 320.781V323.781ZM137.671 323.781H138.562V320.781H137.671V323.781ZM139.171 322.282V322.281H136.171V322.282H139.171ZM139.171 328.532V322.282H136.171V328.532H139.171ZM136.042 331.661C137.77 331.661 139.171 330.26 139.171 328.532H136.171C136.171 328.604 136.113 328.661 136.042 328.661V331.661ZM122.27 331.661H136.042V328.661H122.27V331.661ZM119.141 328.532C119.141 330.26 120.542 331.661 122.27 331.661V328.661C122.199 328.661 122.141 328.604 122.141 328.532H119.141ZM119.141 328.042V328.532H122.141V328.042H119.141ZM120.641 326.542H102.852V329.542H120.641V326.542ZM102.852 326.542C102.78 326.542 102.723 326.485 102.723 326.414H99.7227C99.7227 328.142 101.123 329.542 102.852 329.542V326.542ZM102.723 326.414V326.03H99.7227V326.414H102.723ZM102.723 326.03C102.723 325.959 102.78 325.901 102.852 325.901V322.901C101.123 322.901 99.7227 324.302 99.7227 326.03H102.723ZM102.852 325.901H120.641V322.901H102.852V325.901ZM119.141 322.282V324.401H122.141V322.282H119.141ZM119.141 322.281V322.282H122.141V322.281H119.141ZM119.758 323.781H120.641V320.781H119.758V323.781ZM116.629 320.652C116.629 322.38 118.03 323.781 119.758 323.781V320.781C119.687 320.781 119.629 320.723 119.629 320.652H116.629ZM116.629 316.03V320.652H119.629V316.03H116.629Z" fill="#AF87FF" mask="url(#path-161-inside-2_1234_1546)"/>
<path d="M81.7453 251.474C81.7453 254.688 79.1428 257.292 75.9342 257.292C72.7255 257.292 70.123 254.688 70.123 251.474C70.123 248.26 72.7255 245.656 75.9342 245.656C79.1428 245.656 81.7453 248.26 81.7453 251.474Z" stroke="#AF87FF" stroke-linecap="round" stroke-width="1.5"/>
<path d="M81.7453 276.265C81.7453 279.479 79.1428 282.083 75.9342 282.083C72.7255 282.083 70.123 279.479 70.123 276.265C70.123 273.051 72.7255 270.447 75.9342 270.447C79.1428 270.447 81.7453 273.051 81.7453 276.265Z" stroke="#AF87FF" stroke-linecap="round" stroke-width="1.5"/>
<path d="M142.423 350.762L141.991 350.149L141.797 350.286L141.717 350.51L142.423 350.762ZM147.354 347.295L146.922 346.681V346.681L147.354 347.295ZM143.093 339.76H142.343V340.51H143.093V339.76ZM143.093 341.973V341.223H142.343V341.973H143.093ZM143.071 347.601L142.323 347.555L142.227 349.112L143.503 348.215L143.071 347.601ZM146.081 345.485L146.512 346.098V346.098L146.081 345.485ZM115.988 338.962C115.988 338.399 116.445 337.942 117.008 337.942V336.442C115.617 336.442 114.488 337.57 114.488 338.962H115.988ZM115.988 346.88V338.962H114.488V346.88H115.988ZM126.756 357.648C120.809 357.648 115.988 352.827 115.988 346.88H114.488C114.488 353.656 119.981 359.148 126.756 359.148V357.648ZM131.576 357.648H126.756V359.148H131.576V357.648ZM141.717 350.51C140.227 354.672 136.248 357.648 131.576 357.648V359.148C136.901 359.148 141.433 355.755 143.129 351.015L141.717 350.51ZM146.922 346.681L141.991 350.149L142.854 351.376L147.785 347.908L146.922 346.681ZM148.364 343.905C148.364 345.01 147.826 346.046 146.922 346.681L147.785 347.908C149.089 346.992 149.864 345.498 149.864 343.905H148.364ZM144.97 340.51C146.844 340.51 148.364 342.03 148.364 343.905H149.864C149.864 341.202 147.673 339.01 144.97 339.01V340.51ZM143.093 340.51H144.97V339.01H143.093V340.51ZM142.343 338.962V339.76H143.843V338.962H142.343ZM141.323 337.942C141.887 337.942 142.343 338.399 142.343 338.962H143.843C143.843 337.57 142.715 336.442 141.323 336.442V337.942ZM117.008 337.942H141.323V336.442H117.008V337.942ZM142.343 341.973V346.88H143.843V341.973H142.343ZM142.343 346.88C142.343 347.107 142.336 347.332 142.323 347.555L143.82 347.648C143.836 347.394 143.843 347.138 143.843 346.88H142.343ZM143.503 348.215L146.512 346.098L145.65 344.871L142.64 346.988L143.503 348.215ZM146.512 346.098C147.227 345.596 147.652 344.778 147.652 343.905H146.152C146.152 344.289 145.964 344.65 145.65 344.871L146.512 346.098ZM147.652 343.905C147.652 342.424 146.451 341.223 144.97 341.223V342.723C145.622 342.723 146.152 343.252 146.152 343.905H147.652ZM144.97 341.223H143.093V342.723H144.97V341.223Z" fill="#AF87FF"/>
<path d="M154.563 246.712V300.334H137.469" stroke="#AF87FF" stroke-linecap="round" stroke-width="1.5"/>
<path d="M128.285 250.799L108.352 275.57" stroke="#AF87FF" stroke-linecap="round" stroke-width="1.5"/>
<path d="M143.911 250.799L135.168 262.024M108.938 295.696L126.424 273.248" stroke="#AF87FF" stroke-linecap="round" stroke-width="1.5"/>
<path d="M538.694 383.159L544.5 381.5L543.5 377L538.5 372L534.5 371L533.56 373.349C533.52 373.45 533.488 373.553 533.465 373.658L532.725 376.988C532.584 377.623 532.76 378.286 533.197 378.767L536.665 382.581C537.176 383.144 537.963 383.368 538.694 383.159Z" fill="#D19174"/>
<path d="M534.5 371.5V371.5C536.812 372.491 538.914 373.914 540.693 375.693L541.087 376.087C541.346 376.346 541.464 376.714 541.404 377.075L540.5 382.5" stroke="#A26750" stroke-linecap="round" stroke-width="1.5"/>
<path d="M536 372.5C536.333 373.333 536.9 375.3 536.5 376.5L538.5 379L541 376" stroke="#A26750" stroke-linecap="round" stroke-width="1.5"/>
</g>
<defs>
<clipPath id="clip0_1234_1546">
<rect fill="white" height="755" transform="matrix(-1 0 0 1 1006 0)" width="1006"/>
</clipPath>
<clipPath id="clip1_1234_1546">
<rect fill="white" height="636.129" transform="translate(486.428 23.1761)" width="293.779"/>
</clipPath>
<clipPath id="clip2_1234_1546">
<rect fill="white" height="532.719" transform="translate(486.428 93.6831)" width="293.779"/>
</clipPath>
<clipPath id="clip3_1234_1546">
<rect fill="white" height="266.356" transform="translate(486.426 62.3467)" width="293.775"/>
</clipPath>
</defs>
</svg>