<?xml version="1.0" encoding="utf-8"?>
<svg xmlns="http://www.w3.org/2000/svg" fill="none" height="563" viewBox="0 0 1006 755" width="750">
<rect fill="#103C38" height="755" transform="matrix(-1 0 0 1 1006 0)" width="1006"/>
<circle cx="680" cy="428" fill="#164D48" r="135"/>
<mask height="270" id="mask0_1364_8307" maskUnits="userSpaceOnUse" style="mask-type:luminance" width="270" x="545" y="293">
<circle cx="680" cy="428" fill="white" r="135"/>
</mask>
<g mask="url(#mask0_1364_8307)">
<rect fill="white" height="27.3751" transform="matrix(0.999981 -0.00614208 -0.00614208 -0.999981 478.859 441.826)" width="486.886"/>
<rect fill="#FF99F0" height="27.3751" transform="matrix(0.999981 -0.00614208 -0.00614208 -0.999981 795.625 439.881)" width="170.117"/>
<path d="M781.488 412.574L781.657 440.033L774.962 440.075L774.793 412.615L781.488 412.574Z" fill="#EA4747"/>
<path d="M761.488 412.574L761.657 440.033L754.962 440.075L754.793 412.615L761.488 412.574Z" fill="#EA4747"/>
<rect fill="black" fill-opacity="0.8" height="27.3751" transform="matrix(0.999981 -0.00614208 -0.00614208 -0.999981 564.895 441.298)" width="5.8661"/>
<path d="M593.939 423.697L642.824 423.397L642.812 421.441L593.927 421.741L593.909 418.809L577.313 422.822L593.957 426.63L593.939 423.697ZM594.004 434.45L642.887 434.15L642.875 432.194L593.992 432.494L593.974 429.561L577.378 433.574L594.022 437.383L594.004 434.45Z" fill="black" fill-opacity="0.4"/>
</g>
<circle cx="327" cy="428" fill="#164D48" r="135"/>
<path d="M380.182 442.252C380.182 470.982 356.891 494.273 328.161 494.273C299.431 494.273 276.141 470.982 276.141 442.252C276.141 413.522 328.161 361.727 328.161 361.727C328.161 361.727 380.182 413.522 380.182 442.252Z" fill="#FFDEE5"/>
<path d="M308.097 401.964C302.179 410.84 291.292 432.497 295.079 448.118" stroke="#FFEFF2" stroke-linecap="round" stroke-width="2"/>
<path d="M322.725 341.374C285.752 378.946 262.074 411.622 262.074 442.864C262.449 483.322 289.065 513.04 326.852 513.04C363.096 513.04 391.852 485.924 391.629 442.864C391.629 411.622 367.952 378.946 330.978 341.374C328.71 339.07 324.993 339.07 322.725 341.374Z" fill="#EA4747"/>
<path d="M279.041 441.707C277.884 457.387 286.83 491.601 327.238 498.387" stroke="white" stroke-linecap="round" stroke-opacity="0.5" stroke-width="2"/>
<path d="M349.528 348.331C331.873 366.586 320.68 382.585 320.68 397.907C320.87 418.491 334.412 433.61 353.637 433.61C372.077 433.61 386.707 419.815 386.594 397.907C386.594 382.585 375.401 366.586 357.745 348.331C355.498 346.007 351.776 346.007 349.528 348.331Z" fill="#D42C2C"/>
<path d="M329.31 397.318C328.722 405.296 333.273 422.703 353.832 426.156" stroke="white" stroke-linecap="round" stroke-opacity="0.5" stroke-width="2"/>
<path d="M276.607 218.68C270.127 218.68 266.407 215.12 266.407 208.84H271.007C271.007 212.48 273.087 214.68 276.567 214.68C279.607 214.68 281.287 213.28 281.287 210.76C281.287 208.64 280.287 207.56 277.127 206.28L272.567 204.44C269.047 203.08 267.207 200.56 267.207 197C267.207 192.44 270.887 189.32 276.167 189.32C281.727 189.32 285.407 192.8 285.407 198.08H280.807C280.807 195 279.127 193.24 276.007 193.24C273.367 193.24 271.847 194.6 271.847 196.72C271.847 198.64 273.207 199.92 276.487 201.24L280.607 202.92C284.127 204.36 285.887 206.84 285.887 210.64C285.887 215.44 282.167 218.68 276.607 218.68ZM300.677 198.88C305.997 198.88 309.557 202.8 309.557 208.68C309.557 214.44 305.797 218.48 300.397 218.48C297.917 218.48 295.557 217.28 294.397 215.48V226.4H290.077V199.36H294.397V201.88C295.557 200.08 298.037 198.88 300.677 198.88ZM299.757 214.6C302.957 214.6 305.197 212.16 305.197 208.68C305.197 205.2 302.957 202.76 299.757 202.76C296.477 202.76 294.237 205.16 294.237 208.68C294.237 212.2 296.477 214.6 299.757 214.6ZM322.189 218.48C316.029 218.48 312.349 214.16 312.349 208.68C312.349 203.2 316.029 198.88 322.189 198.88C328.349 198.88 332.029 203.2 332.029 208.68C332.029 214.16 328.349 218.48 322.189 218.48ZM322.189 214.6C325.709 214.6 327.669 212.08 327.669 208.68C327.669 205.28 325.709 202.76 322.189 202.76C318.669 202.76 316.709 205.28 316.709 208.68C316.709 212.08 318.669 214.6 322.189 214.6ZM344.455 214.32C345.135 214.32 346.215 214.24 346.655 214.16V218C345.975 218.12 344.695 218.24 343.415 218.24C341.295 218.24 337.375 217.96 337.375 211.68V203H334.215V199.36H337.375V193.72H341.735V199.36H346.015V203H341.735V210.68C341.735 213.92 342.735 214.32 344.455 214.32ZM359.103 214.32C359.783 214.32 360.863 214.24 361.303 214.16V218C360.623 218.12 359.343 218.24 358.063 218.24C355.943 218.24 352.023 217.96 352.023 211.68V203H348.863V199.36H352.023V193.72H356.383V199.36H360.663V203H356.383V210.68C356.383 213.92 357.383 214.32 359.103 214.32ZM367.472 196.68C365.552 196.68 364.232 195.24 364.232 193.44C364.232 191.64 365.552 190.2 367.472 190.2C369.392 190.2 370.712 191.64 370.712 193.44C370.712 195.24 369.392 196.68 367.472 196.68ZM365.312 218V199.36H369.632V218H365.312ZM375.234 218V199.36H379.594V201.96C380.754 199.96 382.914 198.88 385.674 198.88C390.154 198.88 392.474 201.4 392.474 206.28V218H388.114V208.28C388.114 204.32 387.074 202.6 384.034 202.6C381.194 202.6 379.594 204.48 379.594 207.76V218H375.234ZM411.61 199.36H415.97V217.2C415.97 220.88 414.81 223.64 412.61 225.24C411.05 226.4 408.89 226.88 406.21 226.88C403.73 226.88 401.37 226.36 399.65 225.2C397.89 224 396.77 222.2 396.69 220.12H401.25C401.61 222.04 403.17 223.28 406.17 223.28C409.73 223.28 411.61 221.72 411.61 217.52V215.48C410.49 217.36 407.93 218.48 405.65 218.48C399.85 218.48 396.49 214.16 396.49 208.68C396.49 203.2 400.17 198.88 405.77 198.88C408.25 198.88 410.49 200 411.61 201.88V199.36ZM406.29 214.6C409.85 214.6 411.81 211.88 411.81 208.68C411.81 205.48 409.85 202.76 406.29 202.76C403.01 202.76 400.85 205.28 400.85 208.68C400.85 212.08 403.01 214.6 406.29 214.6ZM445.322 190H449.642V218H445.322V215.48C444.162 217.36 441.602 218.48 439.322 218.48C433.322 218.48 430.162 214.16 430.162 208.68C430.162 203.2 433.642 198.88 439.442 198.88C441.922 198.88 444.162 200 445.322 201.88V190ZM439.962 214.6C443.682 214.6 445.482 211.88 445.482 208.68C445.482 205.48 443.682 202.76 439.962 202.76C436.562 202.76 434.522 205.28 434.522 208.68C434.522 212.08 436.562 214.6 439.962 214.6ZM461.954 218.48C457.874 218.48 455.034 216.08 455.034 211.08V199.36H459.394V210C459.394 213 460.354 214.76 463.194 214.76C466.514 214.76 467.714 212.56 467.714 209.88V199.36H472.074V218H467.714V215.4C466.594 217.4 464.634 218.48 461.954 218.48ZM477.655 218V199.36H482.015V202.96C482.695 200.32 484.935 199.12 486.975 199.12C487.655 199.12 488.215 199.16 488.695 199.28V203.28C488.015 203.2 487.655 203.2 486.975 203.2C483.895 203.2 482.015 205.52 482.015 209.76V218H477.655ZM494.464 196.68C492.544 196.68 491.224 195.24 491.224 193.44C491.224 191.64 492.544 190.2 494.464 190.2C496.384 190.2 497.704 191.64 497.704 193.44C497.704 195.24 496.384 196.68 494.464 196.68ZM492.304 218V199.36H496.624V218H492.304ZM502.226 218V199.36H506.586V201.96C507.746 199.96 509.906 198.88 512.666 198.88C517.146 198.88 519.466 201.4 519.466 206.28V218H515.106V208.28C515.106 204.32 514.066 202.6 511.026 202.6C508.186 202.6 506.586 204.48 506.586 207.76V218H502.226ZM538.602 199.36H542.962V217.2C542.962 220.88 541.802 223.64 539.602 225.24C538.042 226.4 535.882 226.88 533.202 226.88C530.722 226.88 528.362 226.36 526.642 225.2C524.882 224 523.762 222.2 523.682 220.12H528.242C528.602 222.04 530.162 223.28 533.162 223.28C536.722 223.28 538.602 221.72 538.602 217.52V215.48C537.482 217.36 534.922 218.48 532.642 218.48C526.842 218.48 523.482 214.16 523.482 208.68C523.482 203.2 527.162 198.88 532.762 198.88C535.242 198.88 537.482 200 538.602 201.88V199.36ZM533.282 214.6C536.842 214.6 538.802 211.88 538.802 208.68C538.802 205.48 536.842 202.76 533.282 202.76C530.002 202.76 527.842 205.28 527.842 208.68C527.842 212.08 530.002 214.6 533.282 214.6ZM566.994 218.48C560.834 218.48 557.154 214.16 557.154 208.68C557.154 203.2 560.834 198.88 566.994 198.88C573.154 198.88 576.834 203.2 576.834 208.68C576.834 214.16 573.154 218.48 566.994 218.48ZM566.994 214.6C570.514 214.6 572.474 212.08 572.474 208.68C572.474 205.28 570.514 202.76 566.994 202.76C563.474 202.76 561.514 205.28 561.514 208.68C561.514 212.08 563.474 214.6 566.994 214.6ZM585.514 218L577.434 199.36H582.114L587.274 212.16L592.434 199.36H597.114L589.034 218H585.514ZM606.641 218.48C602.561 218.48 599.721 216.08 599.721 211.08V199.36H604.081V210C604.081 213 605.041 214.76 607.881 214.76C611.201 214.76 612.401 212.56 612.401 209.88V199.36H616.761V218H612.401V215.4C611.281 217.4 609.321 218.48 606.641 218.48ZM622.343 218V190H626.703V218H622.343ZM640.064 218.48C634.064 218.48 630.904 214.16 630.904 208.68C630.904 203.2 634.384 198.88 640.184 198.88C642.664 198.88 644.904 200 646.064 201.88V199.36H650.384V218H646.064V215.48C644.904 217.36 642.344 218.48 640.064 218.48ZM640.704 214.6C644.424 214.6 646.224 211.88 646.224 208.68C646.224 205.48 644.424 202.76 640.704 202.76C637.304 202.76 635.264 205.28 635.264 208.68C635.264 212.08 637.304 214.6 640.704 214.6ZM664.416 214.32C665.096 214.32 666.176 214.24 666.616 214.16V218C665.936 218.12 664.656 218.24 663.376 218.24C661.256 218.24 657.336 217.96 657.336 211.68V203H654.176V199.36H657.336V193.72H661.696V199.36H665.976V203H661.696V210.68C661.696 213.92 662.696 214.32 664.416 214.32ZM672.784 196.68C670.864 196.68 669.544 195.24 669.544 193.44C669.544 191.64 670.864 190.2 672.784 190.2C674.704 190.2 676.024 191.64 676.024 193.44C676.024 195.24 674.704 196.68 672.784 196.68ZM670.624 218V199.36H674.944V218H670.624ZM688.986 218.48C682.826 218.48 679.146 214.16 679.146 208.68C679.146 203.2 682.826 198.88 688.986 198.88C695.146 198.88 698.826 203.2 698.826 208.68C698.826 214.16 695.146 218.48 688.986 218.48ZM688.986 214.6C692.506 214.6 694.466 212.08 694.466 208.68C694.466 205.28 692.506 202.76 688.986 202.76C685.466 202.76 683.506 205.28 683.506 208.68C683.506 212.08 685.466 214.6 688.986 214.6ZM703.007 218V199.36H707.367V201.96C708.527 199.96 710.687 198.88 713.447 198.88C717.927 198.88 720.247 201.4 720.247 206.28V218H715.887V208.28C715.887 204.32 714.847 202.6 711.807 202.6C708.967 202.6 707.367 204.48 707.367 207.76V218H703.007ZM728.322 209.08V208.64C728.322 206.24 728.562 204.84 730.882 203.12L732.722 201.76C734.482 200.48 735.242 199.16 735.242 197.16C735.242 194.8 733.722 193.32 731.522 193.32C728.842 193.32 726.882 194.84 726.882 198.24H722.282C722.282 192.52 725.882 189.32 731.722 189.32C737.002 189.32 740.002 192.48 740.002 197C740.002 200.44 738.282 202.4 735.842 204.32L734.402 205.44C732.962 206.56 732.682 207.24 732.682 208.52V209.08H728.322ZM730.482 218.32C728.602 218.32 727.122 216.76 727.122 214.92C727.122 213.08 728.602 211.56 730.482 211.56C732.362 211.56 733.882 213.08 733.882 214.92C733.882 216.76 732.362 218.32 730.482 218.32Z" fill="white"/>
<circle cx="942" cy="691" fill="#FF5A7D" r="32"/>
<path d="M924.522 703.827C926.71 703.7 930.567 703.158 934.561 701.366C940.875 698.534 944.136 694.403 944.185 694.442C944.342 694.564 942.086 697.807 937.843 700.663C934.805 702.704 932.232 703.764 929.63 704.545C927.994 705.033 930.509 704.159 932.857 705.81C934.469 706.942 934.537 708.173 934.6 707.167C934.63 706.703 934.61 706.039 934.566 705.541C936.051 705.961 938.17 706.352 940.821 706.059C943.712 705.736 946.378 704.662 948.746 702.885C949.576 702.26 948.844 702.445 948.419 702.528C947.384 702.729 945.489 702.934 943.385 702.431C944.805 702.431 953.995 701.767 956.798 693.7C959.776 685.111 955.704 674.447 945.679 674.447C935.65 674.447 934.298 689.345 934.473 692.104C933.966 690.614 933.756 688.422 934.102 686.522C934.234 685.805 934.41 684.984 933.521 686.039C931.817 688.065 929.581 691.977 930.23 697.235C929.439 696.581 928.726 696.127 928.062 695.785C927.315 695.399 926.993 695.248 927.828 696.293C928.487 697.118 929.288 699.003 928.282 700.966C927.511 702.47 926.182 703.212 924.766 703.368C924.093 703.427 924.039 703.856 924.522 703.827Z" fill="white"/>
</svg>