<?xml version="1.0" encoding="utf-8"?>
<svg xmlns="http://www.w3.org/2000/svg" fill="none" height="563" viewBox="0 0 1006 755" width="750">
<g clip-path="url(#clip0_1381_3528)">
<rect fill="#D5E1FF" height="755" transform="matrix(-1 0 0 1 1006 0)" width="1006"/>
<rect fill="#D5E1FF" height="630" stroke="#9BB7FF" stroke-linecap="round" stroke-width="2" transform="matrix(-1 0 0 1 449 -15)" width="467" x="-1" y="1"/>
<rect fill="#D5E1FF" height="592" stroke="#9BB7FF" stroke-linecap="round" stroke-width="2" transform="matrix(-1 0 0 1 421 -13)" width="439" x="-1" y="1"/>
<rect fill="#D5E1FF" height="806" stroke="#9BB7FF" stroke-linecap="round" stroke-width="2" transform="matrix(-1 0 0 1 317 -83)" width="50" x="-1" y="1"/>
<rect fill="#D5E1FF" height="806" stroke="#9BB7FF" stroke-linecap="round" stroke-width="2" transform="matrix(-1 0 0 1 373 -83)" width="50" x="-1" y="1"/>
<rect fill="#D5E1FF" height="806" stroke="#9BB7FF" stroke-linecap="round" stroke-width="2" transform="matrix(-1 0 0 1 260 -83)" width="50" x="-1" y="1"/>
<rect fill="#D5E1FF" height="806" stroke="#9BB7FF" stroke-linecap="round" stroke-width="2" transform="matrix(-1 0 0 1 203 -83)" width="50" x="-1" y="1"/>
<rect fill="#D5E1FF" height="806" stroke="#9BB7FF" stroke-linecap="round" stroke-width="2" transform="matrix(-1 0 0 1 146 -83)" width="50" x="-1" y="1"/>
<rect fill="#D5E1FF" height="806" stroke="#9BB7FF" stroke-linecap="round" stroke-width="2" transform="matrix(-1 0 0 1 89 -83)" width="50" x="-1" y="1"/>
<rect fill="#D5E1FF" height="806" stroke="#9BB7FF" stroke-linecap="round" stroke-width="2" transform="matrix(-1 0 0 1 32 -83)" width="50" x="-1" y="1"/>
<path d="M704.89 150.759C699.644 142.758 687.96 132.797 670.209 129.262C663.555 127.937 656.571 129.099 650.849 131.076C643.279 133.692 636.032 137.658 628.222 139.432L625.232 140.111C622.592 140.711 620.053 141.69 617.694 143.019C606.622 149.254 601.136 162.163 604.331 174.462L604.936 176.788C605.6 179.344 605.936 181.974 605.936 184.615L605.936 215.85C605.936 223.857 609.526 231.444 615.719 236.521L621.095 240.929C625.633 244.649 627.678 250.615 626.377 256.337L626.25 256.898C624.659 263.898 628.321 271.031 634.936 273.818C638.273 275.224 642.008 275.358 645.436 274.195L675.5 264L686 259.5L705.599 250.75C711.137 248.278 717.134 247 723.199 247L731.953 247C735.554 247 739.06 245.839 741.949 243.689L745.269 241.218C752.268 236.01 752.553 225.628 745.851 220.043C742.777 217.481 741 213.686 741 209.685L741 207.856C741 200.956 736.92 194.709 730.602 191.935L728.26 190.907C723.276 188.719 719.319 184.707 717.2 179.694L711.055 165.153C709.024 160.347 707.752 155.122 704.89 150.759Z" fill="black"/>
<path d="M544 711.425C564.07 651.075 607.221 526.33 613.436 519.625L745.511 569.916L677.532 665.296L622.177 721.622L641.632 767.017C644.182 772.968 645.723 779.302 646.191 785.759L650.34 843.014L662.965 918.277H626.061L544 711.425Z" fill="#D19174"/>
<path d="M776.645 721.253L795.041 598.287L807.531 546.407C807.619 546.041 807.599 545.657 807.473 545.302L777.049 459.735C776.774 458.96 776.041 458.443 775.219 458.443H692.101L631.516 464.035C630.239 464.153 629.425 465.456 629.878 466.656L645.343 507.592C645.437 507.842 645.582 508.07 645.769 508.261L681.947 545.392C682.234 545.687 682.421 546.065 682.479 546.473L692.101 613.825L702.298 721.622V738.661C702.298 742.185 702.617 745.702 703.253 749.168L707.639 773.092L728.359 947.526C728.455 948.333 729.043 948.995 729.833 949.185L766.577 958.039C767.749 958.322 768.892 957.48 768.97 956.277L776.577 839.332C776.585 839.197 776.608 839.064 776.644 838.934L783.262 815.301C787.823 799.011 788.783 781.923 786.075 765.225L784.359 754.641L776.675 721.985C776.619 721.745 776.608 721.497 776.645 721.253Z" fill="#D19174"/>
<path d="M618.949 502.5C619.901 488.22 617.362 483.375 618.949 476.632L799.086 471.389L807.019 518.437C808.098 524.839 808.641 531.32 808.641 537.813V549.205C808.641 558.585 807.508 567.93 805.268 577.039L799.086 602.172L782.113 718.224C782.038 718.739 782.032 719.262 782.096 719.778L789 776H708L697 724L693.354 699.937C692.453 693.988 692 687.978 692 681.961V647.5L636.998 716L637.149 716.11C640.51 718.554 642.498 722.459 642.498 726.614C642.498 727.812 642.664 729.004 642.99 730.157L654 769L574 799L546.793 733.926C545.262 730.264 544.098 726.46 543.318 722.568L542.978 720.869C540.706 709.532 541.759 697.779 546.01 687.026L618.949 502.5Z" fill="white"/>
<path d="M669.915 258.792L657 224.5L691.5 202.5L716.052 242.558C718.596 246.709 722.568 249.79 727.222 251.222L752.5 259L754.945 298.136L685.927 374.295L637.138 320.746L627.618 280.287L667.316 264.648C669.637 263.734 670.794 261.126 669.915 258.792Z" fill="#D19174"/>
<path d="M717 267.5L687.967 280.294C687.657 280.431 687.362 280.601 687.087 280.8L680.453 285.625C678.287 287.2 675.248 286.679 673.731 284.472L671 280.5" stroke="#A26750" stroke-linecap="round" stroke-width="2"/>
<path d="M654.303 266.45C662.809 302.571 685.633 307.592 727.553 272.955L760.5 475.5C674.367 526.368 635.5 513 619.002 507L610.457 486.611C598.357 457.741 604.673 424.436 626.502 402C603.879 395.239 592.938 369.608 603.706 348.595L633.137 291.159L654.303 266.45Z" fill="#7BCF5E"/>
<path d="M661.654 266.072L663 266.5L655.208 269.25C654.751 269.411 654.369 269.732 654.131 270.154L645.164 286.053C644.901 286.521 644.718 287.029 644.624 287.557L637.086 329.879C636.776 331.621 635.525 333.047 633.838 333.582L619.687 338.065C616.233 339.159 612.871 336.147 613.582 332.594L616.882 316.092C616.961 315.699 616.99 315.298 616.968 314.898L616.587 307.947C615.669 291.199 627.052 276.166 643.38 272.326C644.273 272.116 645.078 271.612 645.653 270.897C649.478 266.138 655.836 264.221 661.654 266.072Z" fill="#7BCF5E"/>
<path d="M621 313.5L615 326.5" stroke="#4CBA37" stroke-linecap="round" stroke-width="2"/>
<path d="M731.533 276.107L748.995 263.626L788.635 344.038C789.951 346.706 790.528 349.679 790.306 352.646L787.692 387.599C787.517 389.947 787.114 392.272 786.491 394.543L776.226 431.938C775.205 435.657 775.506 439.616 777.078 443.138L799.297 492.925L780.439 478.222C775.385 474.282 768.714 473.088 762.607 475.031L755.152 477.403C753.248 478.009 751.262 478.318 749.263 478.318H733.032C732.783 478.318 732.54 478.393 732.334 478.533C729.462 480.488 725.522 478.962 724.715 475.583L708.217 406.501C707.642 404.091 707.533 401.593 707.896 399.143L712.106 370.723L724.749 287.168C725.423 282.716 727.87 278.726 731.533 276.107Z" fill="#7BCF5E"/>
<path d="M860.852 390.955L859.663 388.974C858.337 386.764 855.494 386.011 853.248 387.274L838.242 395.715" stroke="#E6E6E6" stroke-linecap="round" stroke-width="2"/>
<path d="M697 530L692 642" stroke="#E6E6E6" stroke-linecap="round" stroke-width="2"/>
<path d="M795.531 428.823C821.266 404.059 847.154 365.394 886 345L898.795 355.374C902.573 358.438 905.826 362.097 908.427 366.207C914.932 376.489 912.319 390.056 902.461 397.187L896.5 401.5L787.5 473L774.652 450.188L795.531 428.823Z" fill="#D19174"/>
<path d="M789.491 505.777C778.604 493.746 761.536 468.64 773.19 451.645L788.241 436.592L826.116 448.246L797.953 465.241L808.546 494.346C808.927 495.392 808.971 496.546 808.623 497.603C804.723 509.46 800.397 505.423 789.491 505.777Z" fill="#D19174"/>
<path d="M793.259 521.645L787.606 503.121L796.086 499.07L802.871 526.275L799.126 542.57C798.731 544.289 796.825 545.177 795.256 544.373C794.374 543.922 793.809 543.024 793.783 542.034L793.259 521.645Z" fill="#D19174"/>
<path d="M809.41 525.601L800.988 494.707L791.964 494.707L799.183 524.435C799.183 524.435 797.98 537.259 798.581 540.757C799.183 544.254 802.793 541.923 802.793 541.923L809.41 525.601Z" fill="#D19174"/>
<path d="M811.1 514.361L808.163 494.808L799.596 492.527L807.021 529.6L810.414 520.704C811.185 518.684 811.421 516.499 811.1 514.361Z" fill="#D19174"/>
<path d="M770.82 495.12C769.131 487.407 762.243 470.323 771.296 454.725C777.071 467.557 786.86 498.101 784.793 497.199C782.208 496.07 782.246 507.025 782.704 513.291C783.039 517.883 778.83 519.267 776.796 518.889C776.473 518.829 776.253 518.554 776.177 518.234C774.86 512.698 772.13 501.101 770.82 495.12Z" fill="#D19174"/>
<path d="M796.325 500.16L801.777 518.663L799.96 538.323" stroke="#A26750" stroke-linecap="round" stroke-width="2"/>
<path d="M783.242 497.98C782.152 495.653 779.971 490.652 779.971 489.256" stroke="#A26750" stroke-linecap="round" stroke-width="2"/>
<path d="M805.045 500.16L808.316 515.425" stroke="#A26750" stroke-linecap="round" stroke-width="2"/>
<path d="M794.559 460.385L798.443 466.698" stroke="#A26750" stroke-linecap="round" stroke-width="2"/>
<path d="M622 511C624.266 515.208 645 545 684.5 548.5" stroke="#E6E6E6" stroke-linecap="round" stroke-width="2"/>
<path d="M631.309 399.802C660.524 376.065 681.978 396.607 713.019 396.607" stroke="#4CBA37" stroke-linecap="round" stroke-width="2"/>
<path d="M752.002 357.5C753.067 363.434 749.502 392.499 722.238 392.499" stroke="#4CBA37" stroke-linecap="round" stroke-width="2"/>
<path d="M706 535C712.333 527.5 726.5 507 760 499.5" stroke="#E6E6E6" stroke-linecap="round" stroke-width="2"/>
<path d="M699.859 173.12C694.025 163.852 686.917 173.688 683.926 180.144C683.383 181.314 682.227 182.123 680.937 182.103C651.907 181.653 646.167 172.31 632.5 164.5C621.702 158.329 617.998 162.12 614.499 173.12C610.547 185.546 618.385 200.417 623.711 208.616C623.958 208.997 624.12 209.422 624.185 209.872L625.272 217.393C625.802 221.055 626.941 224.615 628.943 227.726C637.166 240.505 654.421 260.538 672.813 255.141C689.559 250.226 695.303 219.841 694.481 206.971C703.863 207.174 707.952 185.979 699.859 173.12Z" fill="#D19174"/>
<ellipse cx="2.26031" cy="3.90381" fill="#391D0F" rx="2.26031" ry="3.90381" transform="matrix(-0.956626 0.291318 0.291318 0.956626 661.055 194.725)"/>
<ellipse cx="2.26031" cy="3.98596" fill="#391D0F" rx="2.26031" ry="3.98596" transform="matrix(-0.956626 0.291318 0.291318 0.956626 634.344 204.866)"/>
<path d="M694.898 174.576C692.729 174.889 688.397 180.684 688.101 188.849" stroke="#A26750" stroke-linecap="round" stroke-linejoin="round" stroke-width="2"/>
<path d="M667.028 182.719C661.136 181.493 649.333 181.162 645.874 187.336" stroke="#A26750" stroke-linecap="round" stroke-linejoin="round" stroke-width="2"/>
<path d="M632.578 192.374C629.016 192.889 621.85 195.795 621.688 203.3" stroke="#A26750" stroke-linecap="round" stroke-linejoin="round" stroke-width="2"/>
<path d="M637.689 195.398L641.333 200.187C642.246 201.387 642.688 202.881 642.575 204.385L641.758 215.272C641.548 218.069 643.982 220.341 646.758 219.94L648.22 219.728L655.09 218.735" stroke="#A26750" stroke-linecap="round" stroke-linejoin="round" stroke-width="2"/>
<path d="M661.799 224.003L665.67 223.021C668.042 222.419 670.641 223.361 670.824 225.801C671.117 229.732 669.368 234.971 665.287 237.806C659.955 241.51 653.723 238.503 650.521 235.703C648.968 234.345 649.193 232.175 650.428 230.522L650.846 229.964C651.741 228.765 653.129 228.034 654.623 227.973C655.783 227.925 656.889 227.473 657.751 226.695L659.181 225.404C659.926 224.731 660.825 224.25 661.799 224.003Z" fill="#A26750" opacity="0.5"/>
<path d="M797.438 275.235L896 353L848 374L774 341.5L743.5 322.5L734 277L751 258.5L774.061 263.945C782.583 265.957 790.563 269.811 797.438 275.235Z" fill="#FFBB97"/>
<path d="M629.431 426.453C606.906 497.531 584.301 533.862 563.351 551.766C552.847 560.742 542.763 565.081 533.354 566.834C523.963 568.584 515.326 567.742 507.754 566.479C496.333 564.576 484.759 557.814 475.015 549.908C465.256 541.991 457.167 532.794 452.734 525.804L455.268 524.196C459.501 530.872 467.358 539.833 476.905 547.578C486.467 555.335 497.56 561.739 508.248 563.521C515.675 564.758 523.914 565.541 532.805 563.885C541.676 562.232 551.281 558.133 561.401 549.484C581.701 532.138 604.096 496.469 626.571 425.547L629.431 426.453Z" fill="#5685FF"/>
<path d="M743.541 256.17L727 274.5L735.5 326L845.5 373L839.933 380.157C839.18 381.126 839.468 382.538 840.541 383.134L886.824 408.847C887.535 409.242 888.415 409.167 889.049 408.657L906.866 394.325C909.606 392.121 911.992 389.511 913.943 386.586L915.8 383.8C916.595 382.608 917.195 381.296 917.579 379.916C918.78 375.591 917.759 370.951 914.851 367.531L912.093 364.286C911.365 363.43 910.572 362.632 909.72 361.9L854 314L802.5 274.5L795.793 270.337C790.628 267.131 785.005 264.729 779.118 263.212L755 257C755 255.343 753.657 254 752 254H748.424C746.562 254 744.788 254.789 743.541 256.17Z" fill="#7BCF5E"/>
<path d="M670.418 220.898C668.609 226.355 662.094 233.216 648.519 233.662" stroke="#A26750" stroke-linecap="round" stroke-linejoin="round" stroke-width="2"/>
<path d="M645.5 273C649.608 289.89 654.677 309.608 688 305.5C715.818 302.07 752.196 261.717 752.5 260.5" stroke="#4CBA37" stroke-linecap="round" stroke-width="2"/>
<path d="M668.5 255.5C679.5 252.5 690.5 245.5 693 220" stroke="#A26750" stroke-linecap="round" stroke-width="2"/>
<path d="M609 732C615.667 729 630.4 721.6 636 716" stroke="#E6E6E6" stroke-linecap="round" stroke-width="2"/>
<path d="M716.5 532.5C726.167 525.167 737 517 762 514" stroke="#E6E6E6" stroke-linecap="round" stroke-width="2"/>
<path d="M843 376L866.5 354" stroke="#4CBA37" stroke-linecap="round" stroke-width="2"/>
<path d="M764 339L793 352" stroke="#4CBA37" stroke-linecap="round" stroke-width="2"/>
<path d="M614.5 737.5C620.667 737.333 634.1 735.4 638.5 729" stroke="#E6E6E6" stroke-width="2"/>
<path d="M184.248 451.035L241.345 542.735C243.088 545.535 244.112 548.722 244.325 552.013L249.94 638.646C250.556 648.156 257.797 655.91 267.243 657.175L357.929 669.321C361.256 669.766 364.418 671.042 367.122 673.031L393.481 692.413C395.694 694.039 397 696.622 397 699.367C397 704.135 393.135 708 388.368 708H205.521C188.946 708 174.088 697.777 168.163 682.297L86.1083 467.896C85.3756 465.982 85 463.949 85 461.899C85 452.984 91.9735 445.625 100.876 445.146L166.196 441.635C173.477 441.243 180.394 444.845 184.248 451.035Z" fill="white"/>
<path d="M385.69 577.896L343 574.5L310.5 567L327.001 526.5L409 544.5L416.106 544.5C417.357 544.5 418.597 544.739 419.758 545.204L419.959 545.284C424.527 547.111 422.5 555 422.5 555C422.5 555 402.178 570.596 388.184 577.436C387.41 577.814 386.549 577.964 385.69 577.896Z" fill="#FF99F0"/>
<path d="M472.5 584L339.5 573L303 577L239.5 619L277.5 659L450.5 663.5L480 769.5H546.5L508 608C503.961 596.816 494.404 588.532 482.759 586.123L472.5 584Z" fill="#9BB7FF"/>
<path d="M423.5 691.5H260.783C220.794 691.5 186.077 663.945 177 625C188.2 585 292.667 584 343.5 588.5L479.913 627.536C494.434 631.692 506.854 641.171 514.693 654.082L516.22 656.597C518.401 660.189 520.198 664 521.582 667.968L553 758H451L432.761 716.242C432.259 715.093 432 713.853 432 712.599V707.75C432 705.403 430.097 703.5 427.75 703.5C425.403 703.5 423.5 701.597 423.5 699.25V691.5Z" fill="#9BB7FF"/>
<path d="M440.46 309.542C456.563 302.292 453.84 274.495 449.315 260.973L430.214 257.403L418.282 294.293C418.965 302.397 424.357 316.792 440.46 309.542Z" fill="#734430"/>
<path d="M347.5 512.5C355.9 509.7 370.333 502 376.5 498.5L359 439L302 375L270 388.5C173 495.5 171.5 593 169.5 602.5C167.5 612 165.5 615.979 165.5 622C165.5 632 173.667 627.5 178.5 631V622C180.667 620.333 192.8 618 224 622C263 627 303.5 607 311.5 596C317.9 587.2 332.167 578 338.5 574.5H359C357 567.7 344.5 555 338.5 549.5C342.9 542.7 346.333 522 347.5 512.5Z" fill="#9BB7FF"/>
<path d="M367.542 386.163L386.21 358.576L359.853 316.931L347.048 341.085L309.511 377.3L333.441 369.039L367.542 386.163Z" fill="#D19174"/>
<path d="M441.605 308.981C451.829 285.936 443.158 267.645 437.544 261.379C370.905 206.799 360.512 283.141 363.646 328.134C349.111 344.019 387.411 366.959 402 371C418.698 375.626 428.705 348.06 431.79 339.965L438.397 339.965C441.711 339.965 444.108 336.798 443.209 333.608L438.339 316.329L441.605 308.981Z" fill="#D19174"/>
<path d="M385.123 294.422L386.429 295.592L387.732 297.02C392.423 302.162 400.811 301.013 403.947 294.8C405.587 291.55 408.872 289.457 412.51 289.344L421.402 289.067C424.48 288.97 427.378 287.598 429.403 285.278L437.165 276.383C439.844 273.314 444.871 274.558 445.809 278.522L446.319 277.922C451.68 271.625 452.84 262.766 449.281 255.301C447.046 250.613 443.151 246.922 438.351 244.94L436.945 244.36C435.454 243.744 433.906 243.275 432.323 242.958L419.421 240.378L391.706 233.286C388.307 232.417 384.812 231.976 381.304 231.976C367.533 231.976 354.639 238.732 346.801 250.054L345.448 252.008L338.696 264.321L330.427 283.43C329.138 286.409 329.876 289.878 332.267 292.073L334.535 294.156C337.696 297.058 336.671 302.275 332.647 303.767C331.01 304.374 329.738 305.693 329.191 307.351L328.536 309.336C327.632 312.079 327.946 315.077 329.4 317.572L330.611 319.649C332.785 323.379 336.424 326.027 340.642 326.949L348.959 328.765C350.483 329.098 351.907 329.79 353.111 330.783C358.415 335.156 366.455 332.867 368.661 326.356L373.205 312.939L379.193 295.941C379.664 294.606 380.859 293.658 382.266 293.505C383.305 293.391 384.344 293.725 385.123 294.422Z" fill="#734430"/>
<path d="M372.384 291.044C377.31 287.384 386.713 293.846 387.31 297.844L378.521 324.023C364.485 322.14 363.802 297.419 372.384 291.044Z" fill="#D19174"/>
<path d="M377.737 294.415C385.182 299.879 386.044 307.774 386.044 307.774" stroke="#A26750" stroke-linecap="round" stroke-linejoin="round" stroke-miterlimit="10" stroke-width="2"/>
<path d="M384.23 361.02C376.377 355.625 374.225 340.116 374.225 340.116" stroke="#A26750" stroke-linecap="round" stroke-linejoin="round" stroke-miterlimit="10" stroke-width="2"/>
<path d="M413.122 346.494C422.597 343.722 428.783 345.215 429.172 347.134C429.287 347.705 428.913 348.604 428.347 349.488C427.544 350.742 426.764 352.126 426.231 353.517C424.265 358.649 416.006 359.808 413.933 354.719C412.364 350.867 412.324 347.516 413.122 346.494Z" fill="#A26750" opacity="0.5"/>
<path d="M427.305 350.765C422.502 350.765 419.002 350.765 411.403 346.682" stroke="#A26750" stroke-linecap="round" stroke-width="2"/>
<path d="M434.836 339.188L428.076 339.568" stroke="#A26750" stroke-linecap="round" stroke-width="2"/>
<path d="M439.667 305.383C436.502 302 430.741 298.861 422.002 302.5" stroke="#A26750" stroke-linecap="round" stroke-width="2"/>
<ellipse cx="2.03746" cy="4.07493" fill="#391D0F" rx="2.03746" ry="4.07493" transform="matrix(-0.951953 -0.306243 -0.306243 0.951953 432.664 311.409)"/>
<path d="M252.187 398.083L253.498 383L255.659 368.089C257.434 355.838 265.169 345.265 276.308 339.864C283.262 336.492 288.998 331.044 292.723 324.271L298.018 314.644C300.96 309.295 305.159 304.742 310.252 301.376L318.717 295.782C324.66 291.855 329.367 286.323 332.292 279.828L338.642 265.726C339.973 262.769 341.681 259.996 343.723 257.477L354.42 244.28L353.418 275.805C353.212 282.287 354.683 288.712 357.69 294.458L369.751 317.508C369.95 317.889 370.177 318.256 370.43 318.604C371.899 320.628 372.444 323.178 371.931 325.625L367.159 348.353C366.723 350.432 366.687 352.575 367.054 354.668L368.956 365.515C370.527 374.471 361.259 381.418 353.103 377.398L335.834 370.789C333.158 369.765 330.375 369.05 327.537 368.657L314.576 366.863C303.732 365.363 292.772 368.656 284.551 375.885L270.552 388.194C269.185 389.396 267.906 390.697 266.727 392.084L260.271 399.679C260.09 399.892 259.931 400.124 259.797 400.371C257.697 404.238 251.806 402.467 252.187 398.083Z" fill="#734430"/>
<path d="M371.5 322C372.667 323.5 375.7 326.3 378.5 325.5" stroke="#A26750" stroke-linecap="round" stroke-width="2"/>
<path d="M307.5 359.5C298.639 363.11 279.471 378.486 268.368 389.83C266.257 391.987 266.733 395.478 269.25 397.144L332.993 439.334C333.655 439.772 334.203 440.361 334.592 441.052L364.613 494.423C365.186 495.442 366.098 496.228 367.191 496.644L373.433 499.022C375.032 499.631 376.831 499.38 378.202 498.358L434.048 456.71C434.674 456.243 435.182 455.636 435.531 454.938L436.772 452.455C437.79 450.42 437.305 447.954 435.593 446.456L415.021 428.456C414.675 428.153 414.382 427.818 414.13 427.433C402.749 410.04 376.2 374.1 358 365C335 353.5 321 354 307.5 359.5Z" fill="#9BB7FF"/>
<path d="M378.5 497.5C374.9 499.5 370.333 499.833 368.5 497.5C361.3 494.3 336.833 462 332 452C330.667 450.333 326.5 447.5 321 452" stroke="#5685FF" stroke-linecap="round" stroke-width="2"/>
<path d="M424.5 458.5C426.667 456.667 432 452.7 436 451.5" stroke="#5685FF" stroke-linecap="round" stroke-width="2"/>
<path d="M254.5 597.5C263.5 596.667 283.9 593.1 293.5 585.5C305.5 576 327.5 560 349 563" stroke="#5685FF" stroke-linecap="round" stroke-width="2"/>
<path d="M326 509.5C328.167 510.667 336 512.3 350 509.5" stroke="#5685FF" stroke-linecap="round" stroke-width="2"/>
<path d="M179 630V627.27C179 623.181 181.571 619.655 185.649 619.353C190.524 618.992 197.9 619.091 208 620.5C229.5 623.5 265.5 639 339 573C340.333 571.833 344.3 569.6 349.5 570" stroke="#5685FF" stroke-linecap="round" stroke-width="2"/>
<path d="M306 553.5C313.667 554.667 330.7 555.4 337.5 549" stroke="#5685FF" stroke-linecap="round" stroke-width="2"/>
<path d="M422.5 691C428.833 691 438 691 457 691" stroke="#5685FF" stroke-linecap="round" stroke-width="2"/>
<path d="M431.5 704.5C436.833 702.667 449 701.5 453.5 698" stroke="#5685FF" stroke-linecap="round" stroke-width="2"/>
<path d="M346.5 589.5L481.873 628.449C486.602 629.81 491.125 631.808 495.316 634.387V634.387C503.934 639.69 510.898 647.296 515.423 656.346L521.5 668.5" stroke="#5685FF" stroke-linecap="round" stroke-width="2"/>
<path d="M331 580.5C335.667 577.5 347.5 572.1 357.5 574.5" stroke="#5685FF" stroke-linecap="round" stroke-width="2"/>
<path d="M445.996 592.309L419.5 585L413.097 582.439C410.721 581.488 408.55 580.091 406.7 578.322L398 570L419.5 555.5L440 558.5L466.381 561.277C467.778 561.424 469.128 561.864 470.344 562.568L476.518 566.142C477.499 566.71 478.376 567.44 479.112 568.302L496.559 588.727C497.567 589.907 497.252 591.713 495.905 592.483C495.326 592.814 494.639 592.897 493.998 592.714L488 591C485.515 592.243 482.562 592.105 480.203 590.637L462.713 579.755C461.92 579.261 461.005 579 460.071 579H436.5L448.783 584.78C451.17 585.903 451.851 588.979 450.163 591.005C449.15 592.22 447.521 592.73 445.996 592.309Z" fill="#D19174"/>
<path d="M426.5 572L437 579" stroke="#A26750" stroke-linecap="round" stroke-width="2"/>
<path d="M460 565.5L470.5 570.5L488.5 590.5" stroke="#A26750" stroke-linecap="round" stroke-width="2"/>
<path d="M422.86 534.094L379 496.5L424.5 458.5L439.071 471.705C439.991 472.538 441.187 473 442.429 473H444.525C445.768 473 446.939 473.585 447.685 474.58C448.756 476.008 450.652 476.541 452.309 475.879L541.214 440.412C542.707 439.816 544.002 438.81 544.948 437.509L545.35 436.956C546.701 435.099 548.859 434 551.155 434C553.826 434 556.276 435.483 557.514 437.85L577.508 476.059C577.835 476.684 578.083 477.347 578.246 478.033C579.439 483.043 575.941 487.956 570.817 488.468L559.478 489.602C556.852 489.865 554.304 490.645 551.98 491.897L513.75 512.5L455.534 538.776C451.557 540.572 447.243 541.5 442.879 541.5C435.536 541.5 428.435 538.873 422.86 534.094Z" fill="#FF99F0"/>
<path d="M428 488.5C432.833 485.5 444.3 478.9 451.5 476.5" stroke="#F57CE3" stroke-linecap="round" stroke-width="2"/>
<path d="M424 491C427.5 486.167 435.6 475.9 440 473.5" stroke="#F57CE3" stroke-linecap="round" stroke-width="2"/>
<path d="M543.5 438.5C544.667 450.333 548.7 475.6 555.5 482" stroke="#F57CE3" stroke-linecap="round" stroke-width="2"/>
<path d="M594.685 416.189L557.5 438.5L567.5 465.5C581.1 469.1 596.833 466 603 464L604.5 428.5L609 424.5L629.677 421.284C630.726 421.12 631.5 420.217 631.5 419.155C631.5 417.965 630.535 417 629.345 417H624L600.769 414.808C598.645 414.608 596.514 415.092 594.685 416.189Z" fill="#D19174"/>
<path d="M659 423.5C659 433.717 654.747 442 649.5 442C644.253 442 640 433.717 640 423.5C640 413.283 644.253 405 649.5 405C654.747 405 659 413.283 659 423.5Z" fill="#5685FF"/>
<ellipse cx="647.5" cy="423.5" fill="white" rx="8.5" ry="18.5"/>
<path d="M631.5 419L625 422L631.5 423.5C633.1 436.7 641.5 440 645.5 440L645.8 440.4C646.555 441.407 647.741 442 649 442L649.5 405.5C648.24 405.185 646.905 405.476 645.89 406.288L645 407C637 408.6 633.333 415.667 631.5 419Z" fill="white"/>
<path d="M622.4 442.175L601.5 445.5V432.5H621L637.5 427.5V429.85C637.5 431.508 636.679 433.057 635.308 433.988L624.422 441.375C623.815 441.786 623.124 442.06 622.4 442.175Z" fill="#D19174"/>
<path d="M623 422.5L608 420L601 433H621.5L645.395 427.945C646.699 427.669 647.759 426.723 648.181 425.458C649.038 422.886 646.971 420.28 644.271 420.53L623 422.5Z" fill="#D19174"/>
<path d="M619.813 450.283L600 455L603 444C609 442.833 621.4 440.5 623 440.5C624.6 440.5 630.667 437.167 633.5 435.5L632.419 439.105C632.145 440.016 631.618 440.83 630.898 441.452L621.923 449.203C621.317 449.727 620.593 450.097 619.813 450.283Z" fill="#D19174"/>
<path d="M615.836 459.4L601 464.5L603 453.5L617 450L625.5 446.5V448.012C625.5 449.289 625.012 450.517 624.135 451.445L617.845 458.105C617.29 458.693 616.6 459.137 615.836 459.4Z" fill="#D19174"/>
<path d="M613.5 432.5H624.677C625.555 432.5 626.429 432.384 627.277 432.156L639 429" stroke="#A26750" stroke-linecap="round" stroke-width="2"/>
<path d="M608.5 420.5L621.043 422.74C622.009 422.912 622.995 422.942 623.97 422.827L631 422" stroke="#A26750" stroke-linecap="round" stroke-width="2"/>
<path d="M614.5 451.5L618.673 450.248C619.223 450.083 619.758 449.871 620.272 449.614L625.5 447" stroke="#A26750" stroke-linecap="round" stroke-width="2"/>
<path d="M615 443L624.5 440L633.5 436" stroke="#A26750" stroke-linecap="round" stroke-width="2"/>
<path d="M566.5 465.5C568.167 469.667 572.3 478.5 575.5 480.5" stroke="#F57CE3" stroke-linecap="round" stroke-width="2"/>
<path d="M259.061 402.5H257.5V400.569C257.5 397.242 258.33 393.968 259.914 391.043L274.663 363.815C276.198 360.98 278.396 358.559 281.069 356.757L299.527 344.313C308.888 338.002 321.5 344.71 321.5 356L317.096 356.705C311.908 357.535 307.255 360.373 304.143 364.606L300.046 370.177C297.762 373.284 294.418 375.446 290.647 376.254C285.549 377.347 281.321 380.887 279.352 385.714L277.578 390.058C274.507 397.582 267.188 402.5 259.061 402.5Z" fill="#734430"/>
<path d="M422.5 312.75L415.5 308.75" opacity="0.5" stroke="#A26750" stroke-linecap="round" stroke-width="2"/>
<path d="M414.5 315.75H421.5" opacity="0.5" stroke="#A26750" stroke-linecap="round" stroke-width="2"/>
<path d="M408.5 340.5C407 341.167 404 343.3 404 346.5" opacity="0.5" stroke="#A26750" stroke-linecap="round" stroke-width="2"/>
<path d="M418.348 319.7L420.714 315.327C421.195 314.437 422.265 314.047 423.206 314.418L436.722 319.742C437.799 320.167 438.292 321.414 437.796 322.46L435.714 326.853C435.265 327.8 434.161 328.24 433.184 327.861L419.385 322.516C418.262 322.081 417.775 320.759 418.348 319.7Z" stroke="white" stroke-linecap="round" stroke-width="2"/>
<path d="M390.5 299.5L419 317.5" stroke="white" stroke-linecap="round" stroke-width="2"/>
<path d="M437.5 323C438.167 323 439.7 323.2 440.5 324" stroke="white" stroke-linecap="round" stroke-width="2"/>
<path d="M101.5 467.5L109 481L184.069 676.18C187.04 683.903 194.461 689 202.736 689H224" stroke="#E6E6E6" stroke-linecap="round" stroke-width="2"/>
<path d="M174 765L187 697H208L187 765H174Z" fill="white"/>
<path d="M388 765L375 697H354L375 765H388Z" fill="white"/>
<path d="M378 306.5C380 307.833 379 310.667 378 313C377.397 315 375 317 375 319.5C375 355.012 394 395.833 400 402.5V407.5L396.501 404C373.967 371.701 369.652 332.908 370.312 314.356C370.392 312.13 370.829 309.86 372.203 308.107C373.647 306.267 375.676 304.951 378 306.5Z" fill="#CCCCCC"/>
<path d="M409 548C405 551 390 560 383 571" stroke="#F57CE3" stroke-linecap="round" stroke-width="2"/>
<path d="M384.728 579.718L389 577L360.5 562L364 572L372.388 576.66C372.794 576.886 373.167 577.167 373.495 577.495L375.036 579.036C375.973 579.973 377.245 580.5 378.571 580.5H382.044C382.995 580.5 383.926 580.229 384.728 579.718Z" fill="#FF99F0"/>
</g>
<defs>
<clipPath id="clip0_1381_3528">
<rect fill="white" height="755" transform="matrix(-1 0 0 1 1006 0)" width="1006"/>
</clipPath>
</defs>
</svg>